<svg width="32" height="30" viewBox="0 0 32 30" fill="none" xmlns="http://www.w3.org/2000/svg">
<path d="M31.4667 0.600004C31.2 0.333337 30.6667 0.333336 30.2667 0.333336L22.6667 2.6V29.4L31.0667 27C31.6 26.8667 32 26.3333 32 25.6667V1.66667C32 1.26667 31.8667 0.86667 31.4667 0.600004Z" fill="#D6B1FF"/>
<path d="M20 2.60001L12 0.600006V27.4L20 29.4V2.60001Z" fill="#2EC5CE"/>
<path d="M9.33333 0.600006L0.933334 3.00001C0.400001 3.26667 0 3.80001 0 4.33334V28.3333C0 28.7333 0.133333 29.1333 0.533333 29.4C0.799999 29.5333 1.06667 29.6667 1.33333 29.6667H1.73333L9.33333 27.4V0.600006Z" fill="#8C30F5"/>
</svg>
