<svg width="66" height="19" viewBox="0 0 66 19" fill="none" xmlns="http://www.w3.org/2000/svg">
<path d="M14.384 15.192C14.752 15.56 14.936 15.96 14.936 16.392C14.936 16.84 14.76 17.232 14.408 17.568C14.072 17.904 13.68 18.072 13.232 18.072C12.72 18.072 12.264 17.864 11.864 17.448L4.424 10.176V16.272C4.424 16.848 4.256 17.304 3.92 17.64C3.584 17.976 3.128 18.144 2.552 18.144C1.976 18.144 1.52 17.976 1.184 17.64C0.848 17.304 0.68 16.848 0.68 16.272V2.808C0.68 2.248 0.848 1.8 1.184 1.464C1.52 1.128 1.976 0.959999 2.552 0.959999C3.128 0.959999 3.584 1.128 3.92 1.464C4.256 1.8 4.424 2.248 4.424 2.808V8.544L11.672 1.512C12.024 1.16 12.424 0.983999 12.872 0.983999C13.32 0.983999 13.712 1.152 14.048 1.488C14.384 1.808 14.552 2.192 14.552 2.64C14.552 3.104 14.36 3.52 13.976 3.888L8.264 9.24L14.384 15.192ZM19.6816 18.144C19.1536 18.144 18.7136 18 18.3616 17.712C18.0256 17.424 17.8576 17 17.8576 16.44V2.664C17.8576 2.104 18.0256 1.68 18.3616 1.392C18.7136 1.104 19.1536 0.959999 19.6816 0.959999C20.1936 0.959999 20.6176 1.104 20.9536 1.392C21.3056 1.68 21.4816 2.104 21.4816 2.664V16.44C21.4816 17 21.3056 17.424 20.9536 17.712C20.6176 18 20.1936 18.144 19.6816 18.144ZM34.9121 14.496C35.2321 14.496 35.4881 14.624 35.6801 14.88C35.8881 15.136 35.9921 15.464 35.9921 15.864C35.9921 16.136 35.9121 16.392 35.7521 16.632C35.5921 16.856 35.3681 17.048 35.0801 17.208C34.5361 17.496 33.9041 17.736 33.1841 17.928C32.4641 18.104 31.8001 18.192 31.1921 18.192C29.9121 18.192 28.7921 17.944 27.8321 17.448C26.8881 16.952 26.1601 16.248 25.6481 15.336C25.1361 14.408 24.8801 13.32 24.8801 12.072C24.8801 10.872 25.1281 9.808 25.6241 8.88C26.1201 7.952 26.8081 7.232 27.6881 6.72C28.5681 6.192 29.5681 5.928 30.6881 5.928C31.7601 5.928 32.6961 6.168 33.4961 6.648C34.3121 7.112 34.9441 7.784 35.3921 8.664C35.8401 9.528 36.0641 10.544 36.0641 11.712C36.0641 12.064 35.9761 12.336 35.8001 12.528C35.6401 12.704 35.4081 12.792 35.1041 12.792H28.3841C28.4961 13.736 28.7841 14.424 29.2481 14.856C29.7121 15.272 30.3761 15.48 31.2401 15.48C31.7041 15.48 32.1201 15.424 32.4881 15.312C32.8561 15.2 33.2641 15.048 33.7121 14.856C33.9361 14.76 34.1521 14.68 34.3601 14.616C34.5681 14.536 34.7521 14.496 34.9121 14.496ZM30.7841 8.424C30.0961 8.424 29.5441 8.648 29.1281 9.096C28.7121 9.528 28.4641 10.16 28.3841 10.992H33.0161C32.9681 10.144 32.7521 9.504 32.3681 9.072C32.0001 8.64 31.4721 8.424 30.7841 8.424ZM44.7569 5.928C46.4849 5.928 47.7649 6.352 48.5969 7.2C49.4289 8.032 49.8449 9.312 49.8449 11.04V16.464C49.8449 16.992 49.6929 17.408 49.3889 17.712C49.0849 18 48.6609 18.144 48.1169 18.144C47.6049 18.144 47.1889 17.992 46.8689 17.688C46.5649 17.368 46.4129 16.96 46.4129 16.464V16.296C46.1729 16.888 45.7729 17.352 45.2129 17.688C44.6529 18.024 43.9969 18.192 43.2449 18.192C42.4449 18.192 41.7169 18.032 41.0609 17.712C40.4209 17.392 39.9089 16.944 39.5249 16.368C39.1569 15.792 38.9729 15.152 38.9729 14.448C38.9729 13.584 39.1889 12.904 39.6209 12.408C40.0689 11.912 40.7809 11.552 41.7569 11.328C42.7329 11.104 44.0689 10.992 45.7649 10.992H46.3889V10.56C46.3889 9.888 46.2369 9.4 45.9329 9.096C45.6449 8.792 45.1569 8.64 44.4689 8.64C43.7809 8.64 42.7889 8.88 41.4929 9.36C41.1249 9.536 40.8129 9.624 40.5569 9.624C40.2049 9.624 39.9249 9.504 39.7169 9.264C39.5089 9.008 39.4049 8.68 39.4049 8.28C39.4049 7.96 39.4769 7.696 39.6209 7.488C39.7649 7.28 39.9969 7.088 40.3169 6.912C40.8769 6.608 41.5569 6.368 42.3569 6.192C43.1729 6.016 43.9729 5.928 44.7569 5.928ZM44.0369 15.696C44.7409 15.696 45.3089 15.464 45.7409 15C46.1729 14.52 46.3889 13.904 46.3889 13.152V12.744H45.9809C44.6849 12.744 43.7729 12.848 43.2449 13.056C42.7329 13.264 42.4769 13.64 42.4769 14.184C42.4769 14.632 42.6209 15 42.9089 15.288C43.2129 15.56 43.5889 15.696 44.0369 15.696ZM61.1465 5.928C62.5545 5.928 63.6025 6.344 64.2905 7.176C64.9785 7.992 65.3225 9.232 65.3225 10.896V16.44C65.3225 16.968 65.1545 17.384 64.8185 17.688C64.4985 17.992 64.0585 18.144 63.4985 18.144C62.9385 18.144 62.4985 17.992 62.1785 17.688C61.8585 17.384 61.6985 16.968 61.6985 16.44V11.064C61.6985 10.264 61.5465 9.68 61.2425 9.312C60.9545 8.944 60.4985 8.76 59.8745 8.76C59.1225 8.76 58.5145 9 58.0505 9.48C57.6025 9.96 57.3785 10.6 57.3785 11.4V16.44C57.3785 16.968 57.2185 17.384 56.8985 17.688C56.5785 17.992 56.1385 18.144 55.5785 18.144C55.0185 18.144 54.5705 17.992 54.2345 17.688C53.9145 17.384 53.7545 16.968 53.7545 16.44V7.632C53.7545 7.136 53.9225 6.736 54.2585 6.432C54.6105 6.128 55.0585 5.976 55.6025 5.976C56.0985 5.976 56.4985 6.128 56.8025 6.432C57.1225 6.72 57.2825 7.096 57.2825 7.56V7.896C57.6985 7.256 58.2345 6.768 58.8905 6.432C59.5625 6.096 60.3145 5.928 61.1465 5.928Z" fill="url(#paint0_linear_2287_7)"/>
<defs>
<linearGradient id="paint0_linear_2287_7" x1="-1" y1="-6" x2="54.232" y2="41.7642" gradientUnits="userSpaceOnUse">
<stop stop-color="#C381DB"/>
<stop offset="1" stop-color="#4E92F9"/>
</linearGradient>
</defs>
</svg>
