<svg xmlns="http://www.w3.org/2000/svg" xmlns:xlink="http://www.w3.org/1999/xlink" xmlns:lucid="lucid" width="1499" height="3000"><g transform="translate(-19 0)" lucid:page-tab-id="0_0"><path d="M0 0h1870.87v3840.5H0z" fill="#fff"/><path d="M248 20c17.67 0 32 17.9 32 40s-14.33 40-32 40h-96c-17.67 0-32-17.9-32-40s14.33-40 32-40z" stroke="#5e5e5e" stroke-width="3" fill="#fff"/><use xlink:href="#a" transform="matrix(1,0,0,1,125,25) translate(22.319814814814812 17.77777777777778)"/><use xlink:href="#b" transform="matrix(1,0,0,1,125,25) translate(4.320987654320987 44.44444444444444)"/><path d="M200 102.5v79.6" stroke="#5e5e5e" stroke-width="2" fill="none"/><path d="M201 102.53h-2v-1.03h2z" stroke="#5e5e5e" stroke-width=".05" fill="#5e5e5e"/><path d="M200 197.37l-4.64-14.27h9.28z" stroke="#5e5e5e" stroke-width="2" fill="#5e5e5e"/><path d="M195.12 203.5c2.7-1.94 7.07-1.94 9.76 0l130.24 93c2.7 1.94 2.7 5.06 0 7l-130.24 93c-2.7 1.94-7.07 1.94-9.76 0l-130.24-93c-2.7-1.94-2.7-5.06 0-7z" stroke="#5e5e5e" stroke-width="3" fill="#fff"/><use xlink:href="#c" transform="matrix(1,0,0,1,65,205) translate(80.49882716049382 65.27777777777777)"/><use xlink:href="#d" transform="matrix(1,0,0,1,65,205) translate(50.961790123456794 91.94444444444446)"/><use xlink:href="#e" transform="matrix(1,0,0,1,65,205) translate(95.03586419753087 91.94444444444446)"/><use xlink:href="#f" transform="matrix(1,0,0,1,65,205) translate(166.76425925925926 91.94444444444446)"/><use xlink:href="#g" transform="matrix(1,0,0,1,65,205) translate(90.15932098765433 118.61111111111111)"/><path d="M500 240.67c0-3.32 2.7-6 6-6h148c3.3 0 6 2.68 6 6v118.66c0 3.32-2.7 6-6 6H506c-3.3 0-6-2.68-6-6z" stroke="#5e5e5e" stroke-width="3" fill="#fff"/><use xlink:href="#h" transform="matrix(1,0,0,1,512,246.66666666666669) translate(43.40123456790124 17.77777777777778)"/><use xlink:href="#i" transform="matrix(1,0,0,1,512,246.66666666666669) translate(18.74074074074074 44.44444444444444)"/><use xlink:href="#j" transform="matrix(1,0,0,1,512,246.66666666666669) translate(29.882716049382715 71.11111111111111)"/><use xlink:href="#k" transform="matrix(1,0,0,1,512,246.66666666666669) translate(83.5246913580247 71.11111111111111)"/><use xlink:href="#l" transform="matrix(1,0,0,1,512,246.66666666666669) translate(4.882716049382708 97.77777777777777)"/><path d="M407.95 301h-68.42v-2h68.42zm72.05 0h-50.92v-2H480z" stroke="#5e5e5e" stroke-width=".05" fill="#5e5e5e"/><path d="M339.56 301h-1l.1-.2-.28-1.8h1.18z" fill="#5e5e5e"/><path d="M339.58 301.02h-1.07l.12-.23-.27-1.82h1.23zm-1.17-2l.28 1.78-.1.18h.95v-1.96z" stroke="#5e5e5e" stroke-width=".05" fill="#5e5e5e"/><path d="M495.26 300L481 304.64v-9.28z" fill="#5e5e5e"/><path d="M498.5 300l-18.5 6v-12zm-16.5 3.26l10.03-3.26-10.03-3.26z" stroke="#5e5e5e" stroke-width=".05" fill="#5e5e5e"/><use xlink:href="#m" transform="matrix(1,0,0,1,407.9467923521555,289.3333333333333) translate(0 14.222222222222223)"/><path d="M580 232.17V163.6c0-3.3-2.7-6-6-6H218.5" stroke="#5e5e5e" stroke-width="2" fill="none"/><path d="M581 233.17h-2v-1.03h2z" stroke="#5e5e5e" stroke-width=".05" fill="#5e5e5e"/><path d="M203.24 157.6l14.26-4.64v9.28z" stroke="#5e5e5e" stroke-width="2" fill="#5e5e5e"/><path d="M195.12 503.5c2.7-1.94 7.07-1.94 9.76 0l130.24 93c2.7 1.94 2.7 5.06 0 7l-130.24 93c-2.7 1.94-7.07 1.94-9.76 0l-130.24-93c-2.7-1.94-2.7-5.06 0-7z" stroke="#5e5e5e" stroke-width="3" fill="#fff"/><use xlink:href="#c" transform="matrix(1,0,0,1,65,505) translate(80.49882716049382 65.27777777777777)"/><use xlink:href="#d" transform="matrix(1,0,0,1,65,505) translate(50.65314814814815 91.94444444444446)"/><use xlink:href="#e" transform="matrix(1,0,0,1,65,505) translate(94.72722222222222 91.94444444444446)"/><use xlink:href="#n" transform="matrix(1,0,0,1,65,505) translate(166.45561728395063 91.94444444444446)"/><use xlink:href="#g" transform="matrix(1,0,0,1,65,505) translate(90.15932098765433 118.61111111111111)"/><path d="M201 482.1h-2v-21.43h2zm0-42.77h-2V400.4h2z" stroke="#5e5e5e" stroke-width=".05" fill="#5e5e5e"/><path d="M201 399.4v1.02h-2v-1.04z" fill="#5e5e5e"/><path d="M201.03 399.4v1.05h-2.06v-1.1zm-2 1h1.94v-.96l-1.94-.03z" stroke="#5e5e5e" stroke-width=".05" fill="#5e5e5e"/><path d="M200 497.37l-4.64-14.27h9.28z" fill="#5e5e5e"/><path d="M200 500.6l-6-18.5h12zm-3.26-16.5l3.26 10.03 3.26-10.03z" stroke="#5e5e5e" stroke-width=".05" fill="#5e5e5e"/><use xlink:href="#o" transform="matrix(1,0,0,1,185.48148148148147,439.3333333333333) translate(0 14.222222222222223)"/><path d="M407.95 601h-68.42v-2h68.42zm72.05 0h-50.92v-2H480z" stroke="#5e5e5e" stroke-width=".05" fill="#5e5e5e"/><path d="M339.56 601h-1l.1-.2-.28-1.8h1.18z" fill="#5e5e5e"/><path d="M339.58 601.02h-1.07l.12-.23-.27-1.82h1.23zm-1.17-2l.28 1.78-.1.18h.95V599z" stroke="#5e5e5e" stroke-width=".05" fill="#5e5e5e"/><path d="M495.26 600L481 604.64v-9.28z" fill="#5e5e5e"/><path d="M498.5 600l-18.5 6v-12zm-16.5 3.26l10.03-3.26-10.03-3.26z" stroke="#5e5e5e" stroke-width=".05" fill="#5e5e5e"/><use xlink:href="#m" transform="matrix(1,0,0,1,407.9467923521555,589.3333333333334) translate(0 14.222222222222223)"/><path d="M500 546c0-3.3 2.7-6 6-6h148c3.3 0 6 2.7 6 6v108c0 3.3-2.7 6-6 6H506c-3.3 0-6-2.7-6-6z" stroke="#5e5e5e" stroke-width="3" fill="#fff"/><use xlink:href="#h" transform="matrix(1,0,0,1,512,552) translate(43.40123456790124 26.77777777777778)"/><use xlink:href="#p" transform="matrix(1,0,0,1,512,552) translate(1.8580246913580254 53.44444444444445)"/><use xlink:href="#q" transform="matrix(1,0,0,1,512,552) translate(11.05555555555555 80.11111111111111)"/><path d="M577.55 422.6l2.53 2.52.92 3.4V537.5h-2V428.8l-.7-2.64-1.8-1.78-2.63-.7H218.5v-2h355.63z" stroke="#5e5e5e" stroke-width=".05" fill="#5e5e5e"/><path d="M581 538.5h-2v-1.03h2z" fill="#5e5e5e"/><path d="M581.02 538.52H579v-1.07H581zm-2-1.02v.98H581v-.98z" stroke="#5e5e5e" stroke-width=".05" fill="#5e5e5e"/><path d="M217.5 427.3l-14.26-4.63 14.26-4.64z" fill="#5e5e5e"/><path d="M218.5 428.68l-18.5-6 18.5-6.03zm-12.03-6l10.03 3.25v-6.52z" stroke="#5e5e5e" stroke-width=".05" fill="#5e5e5e"/><path d="M120 785.92c0-3.3 2.67-6.33 5.95-6.74l148.1-18.44c3.28-.4 5.95 1.95 5.95 5.26v108c0 3.3-2.7 6-6 6H126c-3.3 0-6-2.7-6-6z" stroke="#5e5e5e" stroke-width="3" fill="#fff"/><use xlink:href="#r" transform="matrix(1,0,0,1,125,785) translate(40.925925925925924 37.46527777777778)"/><use xlink:href="#s" transform="matrix(1,0,0,1,125,785) translate(33.148148148148145 64.13194444444446)"/><path d="M201 749.95h-2v-5.36h2zm0-26.7h-2V700.4h2z" stroke="#5e5e5e" stroke-width=".05" fill="#5e5e5e"/><path d="M201 699.4v1.02h-2v-1.04z" fill="#5e5e5e"/><path d="M201.03 699.4v1.05h-2.06v-1.1zm-2 1h1.94v-.96l-1.94-.03z" stroke="#5e5e5e" stroke-width=".05" fill="#5e5e5e"/><path d="M200 765.2l-4.64-14.25h9.28z" fill="#5e5e5e"/><path d="M200 768.45l-6-18.5h12zm-3.26-16.5l3.26 10.03 3.26-10.03z" stroke="#5e5e5e" stroke-width=".05" fill="#5e5e5e"/><use xlink:href="#o" transform="matrix(1,0,0,1,185.48148148148147,723.256277943363) translate(0 14.222222222222223)"/><path d="M150.45 965.8c.86-3.2 4.24-5.8 7.55-5.8h116c3.3 0 5.3 2.6 4.45 5.8l-28.9 108.4c-.86 3.2-4.24 5.8-7.55 5.8H126c-3.3 0-5.3-2.6-4.45-5.8z" stroke="#5e5e5e" stroke-width="3" fill="#fff"/><use xlink:href="#t" transform="matrix(1,0,0,1,125,965) translate(38.961790123456794 59.02777777777778)"/><path d="M200 882.5V940" stroke="#5e5e5e" stroke-width="2" fill="none"/><path d="M201 882.53h-2v-1.03h2z" stroke="#5e5e5e" stroke-width=".05" fill="#5e5e5e"/><path d="M200 955.26L195.36 941h9.28z" stroke="#5e5e5e" stroke-width="2" fill="#5e5e5e"/><path d="M195.2 1143.6c2.65-2 6.95-2 9.6 0l70.4 52.8c2.65 2 2.65 5.2 0 7.2l-70.4 52.8c-2.65 2-6.95 2-9.6 0l-70.4-52.8c-2.65-2-2.65-5.2 0-7.2z" stroke="#5e5e5e" stroke-width="3" fill="#fff"/><use xlink:href="#u" transform="matrix(1,0,0,1,125,1145) translate(38.4617901234568 39.78777777777778)"/><use xlink:href="#v" transform="matrix(1,0,0,1,125,1145) translate(26.825987654320993 66.45444444444445)"/><path d="M200 1082.5v39.67" stroke="#5e5e5e" stroke-width="2" fill="none"/><path d="M201 1082.53h-2v-1.03h2z" stroke="#5e5e5e" stroke-width=".05" fill="#5e5e5e"/><path d="M200 1137.43l-4.64-14.26h9.28z" stroke="#5e5e5e" stroke-width="2" fill="#5e5e5e"/><path d="M201 1320h-2v-10.42h2zm0-31.75h-2v-27.92h2z" stroke="#5e5e5e" stroke-width=".05" fill="#5e5e5e"/><path d="M201 1259.35v1h-2v-1.04z" fill="#5e5e5e"/><path d="M201.03 1259.33v1.05h-2.06v-1.1zm-2 1h1.94v-.95l-1.94-.05z" stroke="#5e5e5e" stroke-width=".05" fill="#5e5e5e"/><path d="M200 1335.26l-4.64-14.26h9.28z" fill="#5e5e5e"/><path d="M200 1338.5l-6-18.5h12zm-3.26-16.5l3.26 10.03 3.26-10.03z" stroke="#5e5e5e" stroke-width=".05" fill="#5e5e5e"/><use xlink:href="#o" transform="matrix(1,0,0,1,185.48148148148147,1288.2480493152057) translate(0 14.222222222222223)"/><path d="M120 1346c0-3.3 2.7-6 6-6h148c3.3 0 6 2.7 6 6v108c0 3.3-2.7 6-6 6H126c-3.3 0-6-2.7-6-6z" stroke="#5e5e5e" stroke-width="3" fill="#fff"/><use xlink:href="#w" transform="matrix(1,0,0,1,132,1352) translate(33.802469135802475 38.77777777777778)"/><use xlink:href="#x" transform="matrix(1,0,0,1,132,1352) translate(17.382716049382722 65.44444444444446)"/><path d="M181.5 157.4H36.13l-2.64.7-1.8 1.8-.7 2.63v1231.34l.7 2.64 1.8 1.8 2.63.7h81.37v2H35.87l-3.42-.92-2.53-2.53-.92-3.42V162.27l.92-3.42 2.53-2.53 3.42-.92H181.5z" stroke="#5e5e5e" stroke-width=".05" fill="#5e5e5e"/><path d="M118.5 1401h-1.03v-2h1.03z" fill="#5e5e5e"/><path d="M118.53 1401.03h-1.08v-2.06h1.08zm-1.03-2v1.94h.97v-1.94z" stroke="#5e5e5e" stroke-width=".05" fill="#5e5e5e"/><path d="M196.76 156.4l-14.26 4.64v-9.28z" fill="#5e5e5e"/><path d="M200 156.4l-18.5 6v-12zm-16.5 3.26l10.03-3.26-10.03-3.26z" stroke="#5e5e5e" stroke-width=".05" fill="#5e5e5e"/><path d="M873.2 1343.6c2.65-2 6.95-2 9.6 0l70.4 52.8c2.65 2 2.65 5.2 0 7.2l-70.4 52.8c-2.65 2-6.95 2-9.6 0l-70.4-52.8c-2.65-2-2.65-5.2 0-7.2z" stroke="#5e5e5e" stroke-width="3" fill="#fff"/><use xlink:href="#u" transform="matrix(1,0,0,1,802.9999999999999,1345) translate(38.4617901234568 39.78777777777778)"/><use xlink:href="#y" transform="matrix(1,0,0,1,802.9999999999999,1345) translate(29.850679012345676 66.45444444444445)"/><path d="M875.9 1145.1c2.65-2 6.94-2 9.6 0l70.4 52.8c2.65 2 2.65 5.2 0 7.2l-70.4 52.8c-2.66 2-6.95 2-9.6 0l-70.4-52.8c-2.66-2-2.66-5.2 0-7.2z" stroke="#5e5e5e" stroke-width="3" fill="#fff"/><use xlink:href="#z" transform="matrix(1,0,0,1,805.6944374802064,1146.5) translate(17.196358024691357 59.02777777777778)"/><use xlink:href="#A" transform="matrix(1,0,0,1,805.6944374802064,1146.5) translate(75.3445061728395 59.02777777777778)"/><path d="M460.35 1346c0-3.3 2.68-6 6-6h148c3.3 0 6 2.7 6 6v108c0 3.3-2.7 6-6 6h-148c-3.32 0-6-2.7-6-6z" stroke="#5e5e5e" stroke-width="3" fill="#fff"/><use xlink:href="#B" transform="matrix(1,0,0,1,472.34721874010313,1352) translate(41.95061728395062 38.77777777777778)"/><use xlink:href="#C" transform="matrix(1,0,0,1,472.34721874010313,1352) translate(29.01851851851852 65.44444444444446)"/><path d="M1014.73 1202.5H960.3v-2h54.43zm65.96 0h-36.93v-2h36.92z" stroke="#5e5e5e" stroke-width=".05" fill="#5e5e5e"/><path d="M960.33 1202.5h-1.08l.16-.4-.27-1.6h1.2z" fill="#5e5e5e"/><path d="M960.36 1202.53h-1.15l.18-.43-.28-1.63h1.26zm-1.2-2l.28 1.58-.16.38h1.03v-1.95z" stroke="#5e5e5e" stroke-width=".05" fill="#5e5e5e"/><path d="M1095.96 1201.5l-14.27 4.64v-9.28z" fill="#5e5e5e"/><path d="M1099.2 1201.5l-18.5 6v-12zm-16.5 3.26l10.02-3.26-10.03-3.26z" stroke="#5e5e5e" stroke-width=".05" fill="#5e5e5e"/><use xlink:href="#o" transform="matrix(1,0,0,1,1014.7314814814815,1190.8333333333333) translate(0 14.222222222222223)"/><path d="M1100.7 1147.5c0-3.3 2.68-6 6-6h148c3.3 0 6 2.7 6 6v108c0 3.3-2.7 6-6 6h-148c-3.32 0-6-2.7-6-6z" stroke="#5e5e5e" stroke-width="3" fill="#fff"/><use xlink:href="#D" transform="matrix(1,0,0,1,1112.6944374802065,1153.5) translate(24.882716049382715 26.77777777777778)"/><use xlink:href="#E" transform="matrix(1,0,0,1,1112.6944374802065,1153.5) translate(16.086419753086417 53.44444444444445)"/><use xlink:href="#F" transform="matrix(1,0,0,1,1112.6944374802065,1153.5) translate(37.93827160493827 80.11111111111111)"/><path d="M873.2 1543.6c2.65-2 6.95-2 9.6 0l70.4 52.8c2.65 2 2.65 5.2 0 7.2l-70.4 52.8c-2.65 2-6.95 2-9.6 0l-70.4-52.8c-2.65-2-2.65-5.2 0-7.2z" stroke="#5e5e5e" stroke-width="3" fill="#fff"/><use xlink:href="#G" transform="matrix(1,0,0,1,802.9999999999999,1545) translate(15.251913580246915 59.02777777777778)"/><use xlink:href="#A" transform="matrix(1,0,0,1,802.9999999999999,1545) translate(77.28895061728396 59.02777777777778)"/><path d="M879 1720h-2v-10.42h2zm0-31.75h-2v-27.92h2z" stroke="#5e5e5e" stroke-width=".05" fill="#5e5e5e"/><path d="M879 1659.35v1h-2v-1.04z" fill="#5e5e5e"/><path d="M879.02 1659.33v1.05H877v-1.1zm-2 1H879v-.95l-1.96-.05z" stroke="#5e5e5e" stroke-width=".05" fill="#5e5e5e"/><path d="M878 1735.26l-4.64-14.26h9.28z" fill="#5e5e5e"/><path d="M878 1738.5l-6-18.5h12zm-3.26-16.5l3.26 10.03 3.26-10.03z" stroke="#5e5e5e" stroke-width=".05" fill="#5e5e5e"/><use xlink:href="#m" transform="matrix(1,0,0,1,867.432098765432,1688.2480493152057) translate(0 14.222222222222223)"/><path d="M798 1746c0-3.3 2.7-6 6-6h148c3.3 0 6 2.7 6 6v108c0 3.3-2.7 6-6 6H804c-3.3 0-6-2.7-6-6z" stroke="#5e5e5e" stroke-width="3" fill="#fff"/><use xlink:href="#H" transform="matrix(1,0,0,1,809.9999999999999,1752) translate(27.44444444444445 39.111111111111114)"/><use xlink:href="#I" transform="matrix(1,0,0,1,809.9999999999999,1752) translate(-2.2777777777777857 65.77777777777777)"/><path d="M1012.04 1601H957.6v-2h54.44zm65.96 0h-36.93v-2H1078z" stroke="#5e5e5e" stroke-width=".05" fill="#5e5e5e"/><path d="M957.64 1601h-1.1l.18-.4-.28-1.6h1.2z" fill="#5e5e5e"/><path d="M957.66 1601.03h-1.14l.17-.43-.3-1.63h1.26zm-1.2-2l.28 1.58-.15.38h1v-1.95z" stroke="#5e5e5e" stroke-width=".05" fill="#5e5e5e"/><path d="M1093.26 1600l-14.26 4.64v-9.28z" fill="#5e5e5e"/><path d="M1096.5 1600l-18.5 6v-12zm-16.5 3.26l10.03-3.26-10.03-3.26z" stroke="#5e5e5e" stroke-width=".05" fill="#5e5e5e"/><use xlink:href="#o" transform="matrix(1,0,0,1,1012.037044001275,1589.3333333333333) translate(0 14.222222222222223)"/><path d="M1098 1546c0-3.3 2.7-6 6-6h148c3.3 0 6 2.7 6 6v108c0 3.3-2.7 6-6 6h-148c-3.3 0-6-2.7-6-6z" stroke="#5e5e5e" stroke-width="3" fill="#fff"/><use xlink:href="#D" transform="matrix(1,0,0,1,1110,1552) translate(24.882716049382715 26.77777777777778)"/><use xlink:href="#E" transform="matrix(1,0,0,1,1110,1552) translate(16.086419753086417 53.44444444444445)"/><use xlink:href="#J" transform="matrix(1,0,0,1,1110,1552) translate(37.62962962962963 80.11111111111111)"/><path d="M878 1862.5v59.67" stroke="#5e5e5e" stroke-width="2" fill="none"/><path d="M879 1862.53h-2v-1.03h2z" stroke="#5e5e5e" stroke-width=".05" fill="#5e5e5e"/><path d="M878 1937.43l-4.64-14.26h9.28z" stroke="#5e5e5e" stroke-width="2" fill="#5e5e5e"/><path d="M873.2 1943.6c2.65-2 6.95-2 9.6 0l70.4 52.8c2.65 2 2.65 5.2 0 7.2l-70.4 52.8c-2.65 2-6.95 2-9.6 0l-70.4-52.8c-2.65-2-2.65-5.2 0-7.2z" stroke="#5e5e5e" stroke-width="3" fill="#fff"/><use xlink:href="#K" transform="matrix(1,0,0,1,802.9999999999999,1945) translate(39.44944444444444 59.02777777777778)"/><path d="M997.43 2001H957.6v-2h39.83zm43.46 0h-22.33v-2h22.32z" stroke="#5e5e5e" stroke-width=".05" fill="#5e5e5e"/><path d="M957.64 2001h-1.1l.18-.4-.28-1.6h1.2z" fill="#5e5e5e"/><path d="M957.66 2001.03h-1.14l.17-.43-.3-1.63h1.26zm-1.2-2l.28 1.58-.15.38h1v-1.95z" stroke="#5e5e5e" stroke-width=".05" fill="#5e5e5e"/><path d="M1056.15 2000l-14.26 4.64v-9.28z" fill="#5e5e5e"/><path d="M1059.4 2000l-18.5 6v-12zm-16.5 3.26l10.02-3.26-10.03-3.26z" stroke="#5e5e5e" stroke-width=".05" fill="#5e5e5e"/><use xlink:href="#m" transform="matrix(1,0,0,1,997.432098765432,1989.3333333333333) translate(0 14.222222222222223)"/><path d="M1133.2 1943.6c2.65-2 6.95-2 9.6 0l70.4 52.8c2.65 2 2.65 5.2 0 7.2l-70.4 52.8c-2.65 2-6.95 2-9.6 0l-70.4-52.8c-2.65-2-2.65-5.2 0-7.2z" stroke="#5e5e5e" stroke-width="3" fill="#fff"/><use xlink:href="#L" transform="matrix(1,0,0,1,1063,1945) translate(35.80746913580247 45.27777777777778)"/><use xlink:href="#A" transform="matrix(1,0,0,1,1063,1945) translate(46.27043209876544 71.94444444444446)"/><path d="M1139 2120h-2v-10.42h2zm0-31.75h-2v-27.92h2z" stroke="#5e5e5e" stroke-width=".05" fill="#5e5e5e"/><path d="M1139 2059.35v1h-2v-1.04z" fill="#5e5e5e"/><path d="M1139.03 2059.33v1.05h-2.06v-1.1zm-2 1h1.94v-.95l-1.94-.05z" stroke="#5e5e5e" stroke-width=".05" fill="#5e5e5e"/><path d="M1138 2135.26l-4.64-14.26h9.28z" fill="#5e5e5e"/><path d="M1138 2138.5l-6-18.5h12zm-3.26-16.5l3.26 10.03 3.26-10.03z" stroke="#5e5e5e" stroke-width=".05" fill="#5e5e5e"/><use xlink:href="#m" transform="matrix(1,0,0,1,1127.432098765432,2088.2480493152057) translate(0 14.222222222222223)"/><path d="M1058 2146c0-3.3 2.7-6 6-6h148c3.3 0 6 2.7 6 6v108c0 3.3-2.7 6-6 6h-148c-3.3 0-6-2.7-6-6z" stroke="#5e5e5e" stroke-width="3" fill="#fff"/><use xlink:href="#M" transform="matrix(1,0,0,1,1070,2152) translate(15.407407407407405 38.77777777777778)"/><use xlink:href="#N" transform="matrix(1,0,0,1,1070,2152) translate(30.53086419753086 65.44444444444446)"/><path d="M1262.04 2001h-44.43v-2h44.44zm55.96 0h-26.93v-2H1318z" stroke="#5e5e5e" stroke-width=".05" fill="#5e5e5e"/><path d="M1217.64 2001h-1.1l.18-.4-.28-1.6h1.2z" fill="#5e5e5e"/><path d="M1217.66 2001.03h-1.14l.17-.43-.3-1.63h1.26zm-1.2-2l.28 1.58-.15.38h1v-1.95z" stroke="#5e5e5e" stroke-width=".05" fill="#5e5e5e"/><path d="M1333.26 2000l-14.26 4.64v-9.28z" fill="#5e5e5e"/><path d="M1336.5 2000l-18.5 6v-12zm-16.5 3.26l10.03-3.26-10.03-3.26z" stroke="#5e5e5e" stroke-width=".05" fill="#5e5e5e"/><use xlink:href="#o" transform="matrix(1,0,0,1,1262.0370440012753,1989.3333333333333) translate(0 14.222222222222223)"/><path d="M1338 1946c0-3.3 2.7-6 6-6h148c3.3 0 6 2.7 6 6v108c0 3.3-2.7 6-6 6h-148c-3.3 0-6-2.7-6-6z" stroke="#5e5e5e" stroke-width="3" fill="#fff"/><use xlink:href="#O" transform="matrix(1,0,0,1,1350,1952) translate(40.31481481481482 26.77777777777778)"/><use xlink:href="#E" transform="matrix(1,0,0,1,1350,1952) translate(16.086419753086417 53.44444444444445)"/><use xlink:href="#P" transform="matrix(1,0,0,1,1350,1952) translate(26.48765432098765 80.11111111111111)"/><path d="M1415.55 1898.42l2.53 2.53.92 3.42v33.13h-2v-32.87l-.7-2.64-1.8-1.8-2.63-.7h-378.74l-2.64.7-1.8 1.8-.7 2.63v76.87h-2v-77.13l.92-3.42 2.53-2.53 3.42-.92h379.26z" stroke="#5e5e5e" stroke-width=".05" fill="#5e5e5e"/><path d="M1419 1938.5h-2v-1.03h2z" fill="#5e5e5e"/><path d="M1419.03 1938.53h-2.06v-1.08h2.06zm-2-1.03v.97h1.94v-.97z" stroke="#5e5e5e" stroke-width=".05" fill="#5e5e5e"/><path d="M1027 1996.76l-4.64-14.26h9.28z" fill="#5e5e5e"/><path d="M1027 2000l-6-18.5h12zm-3.26-16.5l3.26 10.03 3.26-10.03zM1139 2360h-2v-36.07h2zm0-57.4h-2v-40.1h2z" stroke="#5e5e5e" stroke-width=".05" fill="#5e5e5e"/><path d="M1139 2262.53h-2v-1.03h2z" fill="#5e5e5e"/><path d="M1139.03 2262.55h-2.06v-1.08h2.06zm-2-1.03v.98h1.94v-.97z" stroke="#5e5e5e" stroke-width=".05" fill="#5e5e5e"/><path d="M1138 2375.26l-4.64-14.26h9.28z" fill="#5e5e5e"/><path d="M1138 2378.5l-6-18.5h12zm-3.26-16.5l3.26 10.03 3.26-10.03z" stroke="#5e5e5e" stroke-width=".05" fill="#5e5e5e"/><use xlink:href="#m" transform="matrix(1,0,0,1,1127.432098765432,2302.595590142672) translate(0 14.222222222222223)"/><path d="M1058 2386c0-3.3 2.7-6 6-6h148c3.3 0 6 2.7 6 6v108c0 3.3-2.7 6-6 6h-148c-3.3 0-6-2.7-6-6z" stroke="#5e5e5e" stroke-width="3" fill="#fff"/><use xlink:href="#Q" transform="matrix(1,0,0,1,1070,2392) translate(12.413580246913583 53.77777777777778)"/><use xlink:href="#R" transform="matrix(1,0,0,1,1070,2392) translate(70.68518518518519 53.77777777777778)"/><path d="M1138 2502.5v97.5" stroke="#5e5e5e" stroke-width="2" fill="none"/><path d="M1139 2502.53h-2v-1.03h2z" stroke="#5e5e5e" stroke-width=".05" fill="#5e5e5e"/><path d="M1138 2615.26l-4.64-14.26h9.28z" stroke="#5e5e5e" stroke-width="2" fill="#5e5e5e"/><path d="M1058 2626c0-3.3 2.7-6 6-6h148c3.3 0 6 2.7 6 6v108c0 3.3-2.7 6-6 6h-148c-3.3 0-6-2.7-6-6z" stroke="#5e5e5e" stroke-width="3" fill="#fff"/><use xlink:href="#S" transform="matrix(1,0,0,1,1070,2632) translate(25.65432098765433 26.77777777777778)"/><use xlink:href="#T" transform="matrix(1,0,0,1,1070,2632) translate(21.271604938271608 53.44444444444445)"/><use xlink:href="#U" transform="matrix(1,0,0,1,1070,2632) translate(27.567901234567906 80.11111111111111)"/><path d="M332.2 2673.87l.7 2.64 1.8 1.8 2.63.7h718.17v2H337.07l-3.42-.92-2.53-2.53-.92-3.42V1418.5h2z" stroke="#5e5e5e" stroke-width=".05" fill="#5e5e5e"/><path d="M1056.5 2681h-1.03v-2h1.03z" fill="#5e5e5e"/><path d="M1056.53 2681.03h-1.08v-2.06h1.08zm-1.03-2v1.94h.97v-1.94z" stroke="#5e5e5e" stroke-width=".05" fill="#5e5e5e"/><path d="M335.84 1417.5h-9.28l4.64-14.26z" fill="#5e5e5e"/><path d="M337.2 1418.5h-12l6-18.5zm-9.26-2h6.52l-3.26-10.03z" stroke="#5e5e5e" stroke-width=".05" fill="#5e5e5e"/><path d="M1138 2742.5v97.5" stroke="#5e5e5e" stroke-width="2" fill="none"/><path d="M1139 2742.53h-2v-1.03h2z" stroke="#5e5e5e" stroke-width=".05" fill="#5e5e5e"/><path d="M1138 2855.26l-4.64-14.26h9.28z" stroke="#5e5e5e" stroke-width="2" fill="#5e5e5e"/><path d="M1058 2866c0-3.3 2.7-6 6-6h148c3.3 0 6 2.7 6 6v108c0 3.3-2.7 6-6 6h-148c-3.3 0-6-2.7-6-6z" stroke="#5e5e5e" stroke-width="3" fill="#fff"/><use xlink:href="#V" transform="matrix(1,0,0,1,1070,2872) translate(3.5246913580246826 38.77777777777778)"/><use xlink:href="#W" transform="matrix(1,0,0,1,1070,2872) translate(28.061728395061728 65.44444444444446)"/><path d="M783.58 1200.5v2H550.92v-2zm-503.97.5v-2H529.8v2z" stroke="#5e5e5e" stroke-width=".05" fill="#5e5e5e"/><path d="M279.64 1201h-1.1l.18-.4-.28-1.6h1.2z" fill="#5e5e5e"/><path d="M279.66 1201.03h-1.14l.17-.43-.3-1.63h1.26zm-1.2-2l.28 1.58-.15.38h1v-1.95z" stroke="#5e5e5e" stroke-width=".05" fill="#5e5e5e"/><path d="M798.85 1201.5l-14.27 4.64v-9.28z" fill="#5e5e5e"/><path d="M802.08 1201.5l-18.5 6v-12zm-16.5 3.26l10.03-3.26-10.02-3.26z" stroke="#5e5e5e" stroke-width=".05" fill="#5e5e5e"/><use xlink:href="#m" transform="matrix(1,0,0,1,529.7793175055353,1190.0833333333333) translate(0 14.222222222222223)"/><path d="M1178.24 1099.92l2.53 2.53.92 3.42V1139h-2v-32.87l-.72-2.64-1.78-1.8-2.64-.7H639.7l-2.63.7-1.77 1.8-.72 2.63V1183h-2v-77.13l.92-3.42 2.53-2.53 3.42-.92h535.38z" stroke="#5e5e5e" stroke-width=".05" fill="#5e5e5e"/><path d="M1181.7 1140h-2v-1.03h2z" fill="#5e5e5e"/><path d="M1181.72 1140.03h-2.05v-1.08h2.05zm-2-1.03v.97h1.95v-.97z" stroke="#5e5e5e" stroke-width=".05" fill="#5e5e5e"/><path d="M633.58 1198.26l-4.63-14.26h9.27z" fill="#5e5e5e"/><path d="M633.58 1201.5l-6-18.5h12zm-3.26-16.5l3.26 10.03 3.26-10.03zM879 1322.17h-2v-10.75h2zm2.7-32.1h-2v-28.24h2z" stroke="#5e5e5e" stroke-width=".05" fill="#5e5e5e"/><path d="M881.7 1260.85v1h-2v-1.04z" fill="#5e5e5e"/><path d="M881.72 1260.83v1.05h-2.05v-1.1zm-2 1h1.95v-.95l-1.95-.05z" stroke="#5e5e5e" stroke-width=".05" fill="#5e5e5e"/><path d="M878 1337.43l-4.64-14.26h9.28z" fill="#5e5e5e"/><path d="M878 1340.67l-6-18.5h12zm-3.26-16.5l3.26 10.03 3.26-10.03z" stroke="#5e5e5e" stroke-width=".05" fill="#5e5e5e"/><g><use xlink:href="#m" transform="matrix(1,0,0,1,868.7793175055352,1290.0833333333333) translate(0 14.222222222222223)"/></g><path d="M700.05 1401h-59.7v-2h59.7zm98.34 0h-77.2v-2h77.2z" stroke="#5e5e5e" stroke-width=".05" fill="#5e5e5e"/><path d="M799.28 1399.4l.28 1.6h-1.2v-2h1.1z" fill="#5e5e5e"/><path d="M799.3 1399.4l.3 1.63h-1.26v-2.06h1.14zm-.9-.38v1.95h1.13l-.27-1.58.15-.38z" stroke="#5e5e5e" stroke-width=".05" fill="#5e5e5e"/><path d="M639.35 1404.64l-14.27-4.64 14.27-4.64z" fill="#5e5e5e"/><path d="M640.35 1406l-18.5-6 18.5-6zm-12.03-6l10.03 3.26v-6.52z" stroke="#5e5e5e" stroke-width=".05" fill="#5e5e5e"/><g><use xlink:href="#m" transform="matrix(1,0,0,1,700.0501456156899,1389.3333333333333) translate(0 14.222222222222223)"/></g><path d="M881.7 1522.53h-2v-11.68h2zm-2.7-33.02h-2v-29.17h2z" stroke="#5e5e5e" stroke-width=".05" fill="#5e5e5e"/><path d="M879 1459.35v1h-2v-1.04z" fill="#5e5e5e"/><path d="M879.02 1459.33v1.05H877v-1.1zm-2 1H879v-.95l-1.96-.05z" stroke="#5e5e5e" stroke-width=".05" fill="#5e5e5e"/><path d="M880.7 1537.8l-4.64-14.27h9.27z" fill="#5e5e5e"/><path d="M880.7 1541.03l-6.02-18.5h12.03zm-3.26-16.5l3.25 10.03 3.25-10.03z" stroke="#5e5e5e" stroke-width=".05" fill="#5e5e5e"/><g><use xlink:href="#o" transform="matrix(1,0,0,1,864.8287002215847,1489.5144429531372) translate(0 14.222222222222223)"/></g><path d="M1175.55 1510.22l2.53 2.53.92 3.42v21.33h-2v-21.07l-.7-2.64-1.8-1.78-2.63-.72H899.2v-2h272.93z" stroke="#5e5e5e" stroke-width=".05" fill="#5e5e5e"/><path d="M1179 1538.5h-2v-1.03h2z" fill="#5e5e5e"/><path d="M1179.03 1538.53h-2.06v-1.08h2.06zm-2-1.03v.97h1.94v-.97z" stroke="#5e5e5e" stroke-width=".05" fill="#5e5e5e"/><path d="M898.2 1514.94l-12.6-4.1h8.27v-3.77l4.33-1.4z" fill="#5e5e5e"/><path d="M899.2 1516.3l-16.82-5.45h6.47l8.35 2.7v-6.5l-3.33 1.07v-2.1l5.33-1.73zM879 2433.87l.7 2.64 1.8 1.8 2.63.7H1038v2H883.87l-3.42-.92-2.53-2.53-.92-3.42v-84.55h2zm0-105.62h-2v-267.92h2z" stroke="#5e5e5e" stroke-width=".05" fill="#5e5e5e"/><path d="M879 2059.35v1h-2v-1.04z" fill="#5e5e5e"/><path d="M879.02 2059.33v1.05H877v-1.1zm-2 1H879v-.95l-1.96-.05z" stroke="#5e5e5e" stroke-width=".05" fill="#5e5e5e"/><path d="M1053.26 2440l-14.26 4.64v-9.28z" fill="#5e5e5e"/><path d="M1056.5 2440l-18.5 6v-12zm-16.5 3.26l10.03-3.26-10.03-3.26z" stroke="#5e5e5e" stroke-width=".05" fill="#5e5e5e"/><g><use xlink:href="#o" transform="matrix(1,0,0,1,863.4814814814814,2328.248049315206) translate(0 14.222222222222223)"/></g><path d="M457.85 1400H300" stroke="#5e5e5e" stroke-width="2" fill="none"/><path d="M458.85 1401h-1.03v-2h1.03z" stroke="#5e5e5e" stroke-width=".05" fill="#5e5e5e"/><path d="M284.74 1400l14.26-4.64v9.28z" stroke="#5e5e5e" stroke-width="2" fill="#5e5e5e"/><defs><path fill="#333" d="M160-131c35 5 61 23 61 61C221 17 115-2 30 0v-248c76 3 177-17 177 60 0 33-19 50-47 57zm-97-11c50-1 110 9 110-42 0-47-63-36-110-37v79zm0 115c55-2 124 14 124-45 0-56-70-42-124-44v89" id="X"/><path fill="#333" d="M75-87c-4 1-14 3-19 3V0H24v-190h32v83c26-2 31-21 43-41l26-42h33l-61 86L159 0h-35" id="Y"/><path fill="#333" d="M153 0v-167H87C74-108 81-27 38 0 29 5 12 6 2 1v-22c51 4 39-64 49-112 5-25 4-25 8-57h126V0h-32" id="Z"/><path fill="#333" d="M175-194c59 1 80 36 80 99 0 62-25 99-81 99-54 0-76-36-78-91H57V0H25v-190h32v80h39c4-56 30-84 79-84zm-1 174c42 1 48-34 48-75 0-42-6-75-46-75-41-1-47 34-47 75s6 74 45 75" id="aa"/><path fill="#333" d="M131-81C94-61 21-56 21-118v-72h32c4 39-16 99 29 99 19 0 33-5 49-8v-91h31V0h-31v-81" id="ab"/><path fill="#333" d="M141-36C126-15 110 5 73 4 37 3 15-17 15-53c-1-64 63-63 125-63 3-35-9-54-41-54-24 1-41 7-42 31l-33-3c5-37 33-52 76-52 45 0 72 20 72 64v82c-1 20 7 32 28 27v20c-31 9-61-2-59-35zM48-53c0 20 12 33 32 33 41-3 63-29 60-74-43 2-92-5-92 41" id="ac"/><path fill="#333" d="M100-194c63 0 86 42 84 106H49c0 40 14 67 53 68 26 1 43-12 49-29l28 8c-11 28-37 45-77 45C44 4 14-33 15-96c1-61 26-98 85-98zm52 81c6-60-76-77-97-28-3 7-6 17-6 28h103" id="ad"/><path fill="#333" d="M138 0h-27L54-167c3 53 2 111 2 167H25v-190h49c16 56 39 106 51 166 11-61 34-110 50-166h48V0h-31l2-168" id="ae"/><g id="a"><use transform="matrix(0.06172839506172839,0,0,0.06172839506172839,0,0)" xlink:href="#X"/><use transform="matrix(0.06172839506172839,0,0,0.06172839506172839,14.814814814814813,0)" xlink:href="#Y"/><use transform="matrix(0.06172839506172839,0,0,0.06172839506172839,24.75308641975308,0)" xlink:href="#Z"/><use transform="matrix(0.06172839506172839,0,0,0.06172839506172839,37.716049382716044,0)" xlink:href="#aa"/><use transform="matrix(0.06172839506172839,0,0,0.06172839506172839,53.88888888888888,0)" xlink:href="#ab"/><use transform="matrix(0.06172839506172839,0,0,0.06172839506172839,65.43209876543209,0)" xlink:href="#ac"/><use transform="matrix(0.06172839506172839,0,0,0.06172839506172839,77.77777777777777,0)" xlink:href="#ad"/><use transform="matrix(0.06172839506172839,0,0,0.06172839506172839,90.12345679012346,0)" xlink:href="#ae"/></g><path fill="#333" d="M100-194c62-1 85 37 85 99 1 63-27 99-86 99S16-35 15-95c0-66 28-99 85-99zM99-20c44 1 53-31 53-75 0-43-8-75-51-75s-53 32-53 75 10 74 51 75" id="af"/><path fill="#333" d="M217-194c52 0 64 44 64 98S268 2 217 4c-29 1-44-13-55-34l1 105h-30V-31C124-8 108 4 79 4 29 4 16-37 15-94c0-57 15-98 64-100 29 0 44 14 55 33l-1-100h30v101c10-23 24-34 54-34zM89-170c-37 1-41 36-41 75 0 37 3 74 40 74 39 0 45-35 45-76-1-39-6-73-44-73zM207-20c38 0 41-36 41-75 0-38-3-74-40-74-41 0-45 36-45 80 1 38 7 69 44 69" id="ag"/><path fill="#333" d="M16-82v-28h88v28H16" id="ah"/><path fill="#333" d="M25 0v-190h32v167h72v-167h31v167h72v-167h32V0H25" id="ai"/><path fill="#333" d="M56-190L54-37l88-153h34V0h-30l2-153L59 0H25v-190h31" id="aj"/><path fill="#333" d="M57-190v80h85v-80h32V0h-32v-87H57V0H25v-190h32" id="ak"/><path fill="#333" d="M179-190L93 31C79 59 56 82 12 73V49c39 6 53-20 64-50L1-190h34L92-34l54-156h33" id="al"/><g id="b"><use transform="matrix(0.06172839506172839,0,0,0.06172839506172839,0,0)" xlink:href="#Y"/><use transform="matrix(0.06172839506172839,0,0,0.06172839506172839,9.93827160493827,0)" xlink:href="#af"/><use transform="matrix(0.06172839506172839,0,0,0.06172839506172839,22.28395061728395,0)" xlink:href="#ag"/><use transform="matrix(0.06172839506172839,0,0,0.06172839506172839,40.55555555555556,0)" xlink:href="#ad"/><use transform="matrix(0.06172839506172839,0,0,0.06172839506172839,52.901234567901234,0)" xlink:href="#ah"/><use transform="matrix(0.06172839506172839,0,0,0.06172839506172839,60.24691358024691,0)" xlink:href="#ae"/><use transform="matrix(0.06172839506172839,0,0,0.06172839506172839,75.49382716049382,0)" xlink:href="#ac"/><use transform="matrix(0.06172839506172839,0,0,0.06172839506172839,87.8395061728395,0)" xlink:href="#ai"/><use transform="matrix(0.06172839506172839,0,0,0.06172839506172839,105.61728395061729,0)" xlink:href="#aj"/><use transform="matrix(0.06172839506172839,0,0,0.06172839506172839,118.0246913580247,0)" xlink:href="#ak"/><use transform="matrix(0.06172839506172839,0,0,0.06172839506172839,130.2469135802469,0)" xlink:href="#al"/></g><path fill="#333" d="M94-120c-9 3-20 7-31 7V0H30v-248h33v109c41-1 47-27 65-55l36-54h35c-23 32-58 90-81 112L208 0h-39" id="am"/><path fill="#333" d="M6-190h153v23H98V0H67v-167H6v-23" id="an"/><path fill="#333" d="M165-267c8 67-110 75-125 20-2-7-4-13-4-20h29c1 23 13 35 36 35s34-13 36-35h28zM56-190L54-37l88-153h34V0h-30l2-153L59 0H25v-190h31" id="ao"/><path fill="#333" d="M115-194c55 1 70 41 70 98S169 2 115 4C84 4 66-9 55-30l1 105H24l-1-265h31l2 30c10-21 28-34 59-34zm-8 174c40 0 45-34 45-75s-6-73-45-74c-42 0-51 32-51 76 0 43 10 73 51 73" id="ap"/><g id="c"><use transform="matrix(0.06172839506172839,0,0,0.06172839506172839,0,0)" xlink:href="#am"/><use transform="matrix(0.06172839506172839,0,0,0.06172839506172839,12.901234567901234,0)" xlink:href="#af"/><use transform="matrix(0.06172839506172839,0,0,0.06172839506172839,25.24691358024691,0)" xlink:href="#ak"/><use transform="matrix(0.06172839506172839,0,0,0.06172839506172839,37.46913580246913,0)" xlink:href="#an"/><use transform="matrix(0.06172839506172839,0,0,0.06172839506172839,47.34567901234568,0)" xlink:href="#ad"/><use transform="matrix(0.06172839506172839,0,0,0.06172839506172839,59.691358024691354,0)" xlink:href="#ao"/><use transform="matrix(0.06172839506172839,0,0,0.06172839506172839,72.09876543209876,0)" xlink:href="#ak"/><use transform="matrix(0.06172839506172839,0,0,0.06172839506172839,84.32098765432099,0)" xlink:href="#ad"/><use transform="matrix(0.06172839506172839,0,0,0.06172839506172839,96.66666666666667,0)" xlink:href="#ap"/></g><path fill="#333" d="M147-167H93C83-118 77-63 59-23h88v-144zM24-23c26-44 31-102 41-167h113v167h26v95h-29V0H32v72H4v-95h20" id="aq"/><path fill="#333" d="M20-138c-1-64 85-51 150-52V0h-32v-81H94L39 0H3l60-83c-28-5-43-24-43-55zm33 3c0 40 46 33 85 33v-66c-39 0-85-6-85 33" id="ar"/><g id="d"><use transform="matrix(0.06172839506172839,0,0,0.06172839506172839,0,0)" xlink:href="#aq"/><use transform="matrix(0.06172839506172839,0,0,0.06172839506172839,12.962962962962962,0)" xlink:href="#Z"/><use transform="matrix(0.06172839506172839,0,0,0.06172839506172839,25.925925925925924,0)" xlink:href="#ar"/></g><path fill="#333" d="M105-20c41 1 53-27 53-68 0-40-9-69-50-69s-54 27-54 69c0 40 12 68 51 68zM47-134c10-28 31-47 68-47 56 0 76 33 76 92 1 60-28 90-86 93C-9 9 1-201 72-238c29-15 73-21 110-26v28c-67 12-144 10-135 102" id="as"/><path fill="#333" d="M33 0v-38h34V0H33" id="at"/><g id="e"><use transform="matrix(0.06172839506172839,0,0,0.06172839506172839,0,0)" xlink:href="#af"/><use transform="matrix(0.06172839506172839,0,0,0.06172839506172839,11.851851851851851,0)" xlink:href="#an"/><use transform="matrix(0.06172839506172839,0,0,0.06172839506172839,21.975308641975307,0)" xlink:href="#ap"/><use transform="matrix(0.06172839506172839,0,0,0.06172839506172839,34.32098765432099,0)" xlink:href="#ac"/><use transform="matrix(0.06172839506172839,0,0,0.06172839506172839,46.666666666666664,0)" xlink:href="#as"/><use transform="matrix(0.06172839506172839,0,0,0.06172839506172839,59.382716049382715,0)" xlink:href="#at"/></g><path fill="#333" d="M176-55C176 11 93 0 25 0v-190c61 3 142-15 144 47 1 29-21 35-39 44 27 3 46 16 46 44zm-34 0c0-41-47-30-85-32v64c38-1 85 8 85-32zm-6-83c0-36-44-26-79-28v56c34-2 79 8 79-28" id="au"/><path fill="#333" d="M170-56C169 10 92 0 25 0v-190h32v80c58-2 114-1 113 54zm-34 0c0-38-42-32-79-32v66c38 0 79 5 79-34zm66 56v-190h32V0h-32" id="av"/><g id="f"><use transform="matrix(0.06172839506172839,0,0,0.06172839506172839,0,0)" xlink:href="#au"/><use transform="matrix(0.06172839506172839,0,0,0.06172839506172839,11.54320987654321,0)" xlink:href="#af"/><use transform="matrix(0.06172839506172839,0,0,0.06172839506172839,23.395061728395063,0)" xlink:href="#aq"/><use transform="matrix(0.06172839506172839,0,0,0.06172839506172839,36.358024691358025,0)" xlink:href="#av"/></g><path fill="#333" d="M170-190V0h-32v-167H57V0H25v-190h145" id="aw"/><path fill="#333" d="M103-251c84 0 111 97 45 133-19 10-37 24-39 52H78c0-63 77-55 77-114 0-30-21-42-52-43-32 0-53 17-56 46l-32-2c7-45 34-72 88-72zM77 0v-35h34V0H77" id="ax"/><g id="g"><use transform="matrix(0.06172839506172839,0,0,0.06172839506172839,0,0)" xlink:href="#aw"/><use transform="matrix(0.06172839506172839,0,0,0.06172839506172839,11.975308641975309,0)" xlink:href="#af"/><use transform="matrix(0.06172839506172839,0,0,0.06172839506172839,23.827160493827158,0)" xlink:href="#Z"/><use transform="matrix(0.06172839506172839,0,0,0.06172839506172839,36.79012345679012,0)" xlink:href="#ak"/><use transform="matrix(0.06172839506172839,0,0,0.06172839506172839,49.01234567901234,0)" xlink:href="#av"/><use transform="matrix(0.06172839506172839,0,0,0.06172839506172839,64.93827160493827,0)" xlink:href="#ao"/><use transform="matrix(0.06172839506172839,0,0,0.06172839506172839,77.34567901234567,0)" xlink:href="#ax"/></g><path fill="#333" d="M30 0v-248h187v28H63v79h144v27H63v87h162V0H30" id="ay"/><path fill="#333" d="M114-163C36-179 61-72 57 0H25l-1-190h30c1 12-1 29 2 39 6-27 23-49 58-41v29" id="az"/><path fill="#333" d="M100-194c62-1 85 37 85 99 1 63-27 99-86 99S16-35 15-95c0-66 28-99 85-99zM99-20c44 1 53-31 53-75 0-43-8-75-51-75s-53 32-53 75 10 74 51 75" id="aA"/><g id="h"><use transform="matrix(0.06172839506172839,0,0,0.06172839506172839,0,0)" xlink:href="#ay"/><use transform="matrix(0.06172839506172839,0,0,0.06172839506172839,14.814814814814813,0)" xlink:href="#az"/><use transform="matrix(0.06172839506172839,0,0,0.06172839506172839,22.160493827160494,0)" xlink:href="#az"/><use transform="matrix(0.06172839506172839,0,0,0.06172839506172839,29.50617283950617,0)" xlink:href="#aA"/><use transform="matrix(0.06172839506172839,0,0,0.06172839506172839,41.85185185185185,0)" xlink:href="#az"/></g><path fill="#333" d="M109-170H84l-4-78h32zm-65 0H19l-4-78h33" id="aB"/><g id="i"><use transform="matrix(0.06172839506172839,0,0,0.06172839506172839,0,0)" xlink:href="#aB"/><use transform="matrix(0.06172839506172839,0,0,0.06172839506172839,7.8395061728395055,0)" xlink:href="#X"/><use transform="matrix(0.06172839506172839,0,0,0.06172839506172839,22.65432098765432,0)" xlink:href="#av"/><use transform="matrix(0.06172839506172839,0,0,0.06172839506172839,38.58024691358025,0)" xlink:href="#Z"/><use transform="matrix(0.06172839506172839,0,0,0.06172839506172839,51.54320987654321,0)" xlink:href="#ad"/><use transform="matrix(0.06172839506172839,0,0,0.06172839506172839,63.888888888888886,0)" xlink:href="#ao"/><use transform="matrix(0.06172839506172839,0,0,0.06172839506172839,76.29629629629629,0)" xlink:href="#an"/><use transform="matrix(0.06172839506172839,0,0,0.06172839506172839,86.17283950617283,0)" xlink:href="#ad"/></g><g id="j"><use transform="matrix(0.06172839506172839,0,0,0.06172839506172839,0,0)" xlink:href="#au"/><use transform="matrix(0.06172839506172839,0,0,0.06172839506172839,11.54320987654321,0)" xlink:href="#af"/><use transform="matrix(0.06172839506172839,0,0,0.06172839506172839,23.395061728395063,0)" xlink:href="#aq"/><use transform="matrix(0.06172839506172839,0,0,0.06172839506172839,36.358024691358025,0)" xlink:href="#al"/></g><path fill="#333" d="M152-53C154 19 21 22 9-41l28-8c5 36 84 42 81-4-1-29-28-34-58-35v-24c28 0 55-4 55-30 0-19-14-29-34-28-20 0-35 7-38 25l-28-3c4-33 30-46 66-46 37 0 66 15 66 50 0 27-20 41-44 44 27 5 48 17 49 47" id="aC"/><g id="k"><use transform="matrix(0.06172839506172839,0,0,0.06172839506172839,0,0)" xlink:href="#aj"/><use transform="matrix(0.06172839506172839,0,0,0.06172839506172839,12.407407407407407,0)" xlink:href="#aC"/></g><g id="l"><use transform="matrix(0.06172839506172839,0,0,0.06172839506172839,0,0)" xlink:href="#Y"/><use transform="matrix(0.06172839506172839,0,0,0.06172839506172839,9.93827160493827,0)" xlink:href="#af"/><use transform="matrix(0.06172839506172839,0,0,0.06172839506172839,22.28395061728395,0)" xlink:href="#ak"/><use transform="matrix(0.06172839506172839,0,0,0.06172839506172839,34.50617283950617,0)" xlink:href="#an"/><use transform="matrix(0.06172839506172839,0,0,0.06172839506172839,44.382716049382715,0)" xlink:href="#ad"/><use transform="matrix(0.06172839506172839,0,0,0.06172839506172839,56.72839506172839,0)" xlink:href="#ao"/><use transform="matrix(0.06172839506172839,0,0,0.06172839506172839,69.1358024691358,0)" xlink:href="#ak"/><use transform="matrix(0.06172839506172839,0,0,0.06172839506172839,81.35802469135803,0)" xlink:href="#ad"/><use transform="matrix(0.06172839506172839,0,0,0.06172839506172839,93.70370370370371,0)" xlink:href="#ap"/><use transform="matrix(0.06172839506172839,0,0,0.06172839506172839,106.0493827160494,0)" xlink:href="#ac"/><use transform="matrix(0.06172839506172839,0,0,0.06172839506172839,118.39506172839508,0)" xlink:href="#aB"/></g><path fill="#333" d="M147-157h-42c-8 43-13 90-29 124h71v-124zM24-33c25-41 30-96 40-157h132v157h26V72h-43V0H46v72H2V-33h22" id="aD"/><path fill="#333" d="M133-34C117-15 103 5 69 4 32 3 11-16 11-54c-1-60 55-63 116-61 1-26-3-47-28-47-18 1-26 9-28 27l-52-2c7-38 36-58 82-57s74 22 75 68l1 82c-1 14 12 18 25 15v27c-30 8-71 5-69-32zm-48 3c29 0 43-24 42-57-32 0-66-3-65 30 0 17 8 27 23 27" id="aE"/><g id="m"><use transform="matrix(0.04938271604938272,0,0,0.04938271604938272,0,0)" xlink:href="#aD"/><use transform="matrix(0.04938271604938272,0,0,0.04938271604938272,11.25925925925926,0)" xlink:href="#aE"/></g><g id="n"><use transform="matrix(0.06172839506172839,0,0,0.06172839506172839,0,0)" xlink:href="#Y"/><use transform="matrix(0.06172839506172839,0,0,0.06172839506172839,9.93827160493827,0)" xlink:href="#af"/><use transform="matrix(0.06172839506172839,0,0,0.06172839506172839,22.28395061728395,0)" xlink:href="#ag"/><use transform="matrix(0.06172839506172839,0,0,0.06172839506172839,40.55555555555556,0)" xlink:href="#ad"/></g><path fill="#333" d="M75-190v75h68v-75h49V0h-49v-81H75V0H25v-190h50" id="aF"/><path fill="#333" d="M185-48c-13 30-37 53-82 52C43 2 14-33 14-96s30-98 90-98c62 0 83 45 84 108H66c0 31 8 55 39 56 18 0 30-7 34-22zm-45-69c5-46-57-63-70-21-2 6-4 13-4 21h74" id="aG"/><path fill="#333" d="M10-190h156v33h-53V0H63v-157H10v-33" id="aH"/><g id="o"><use transform="matrix(0.04938271604938272,0,0,0.04938271604938272,0,0)" xlink:href="#aF"/><use transform="matrix(0.04938271604938272,0,0,0.04938271604938272,10.71604938271605,0)" xlink:href="#aG"/><use transform="matrix(0.04938271604938272,0,0,0.04938271604938272,20.345679012345684,0)" xlink:href="#aH"/></g><path fill="#333" d="M140-251c81 0 123 46 123 126C263-46 219 4 140 4 59 4 17-45 17-125s42-126 123-126zm0 227c63 0 89-41 89-101s-29-99-89-99c-61 0-89 39-89 99S79-25 140-24" id="aI"/><path fill="#333" d="M96-169c-40 0-48 33-48 73s9 75 48 75c24 0 41-14 43-38l32 2c-6 37-31 61-74 61-59 0-76-41-82-99-10-93 101-131 147-64 4 7 5 14 7 22l-32 3c-4-21-16-35-41-35" id="aJ"/><g id="p"><use transform="matrix(0.06172839506172839,0,0,0.06172839506172839,0,0)" xlink:href="#aB"/><use transform="matrix(0.06172839506172839,0,0,0.06172839506172839,7.8395061728395055,0)" xlink:href="#aI"/><use transform="matrix(0.06172839506172839,0,0,0.06172839506172839,25.123456790123456,0)" xlink:href="#aJ"/><use transform="matrix(0.06172839506172839,0,0,0.06172839506172839,36.23456790123457,0)" xlink:href="#au"/><use transform="matrix(0.06172839506172839,0,0,0.06172839506172839,47.777777777777786,0)" xlink:href="#af"/><use transform="matrix(0.06172839506172839,0,0,0.06172839506172839,60.12345679012346,0)" xlink:href="#as"/><use transform="matrix(0.06172839506172839,0,0,0.06172839506172839,72.8395061728395,0)" xlink:href="#af"/><use transform="matrix(0.06172839506172839,0,0,0.06172839506172839,84.69135802469137,0)" xlink:href="#aq"/><use transform="matrix(0.06172839506172839,0,0,0.06172839506172839,97.65432098765433,0)" xlink:href="#aj"/><use transform="matrix(0.06172839506172839,0,0,0.06172839506172839,110.06172839506173,0)" xlink:href="#an"/><use transform="matrix(0.06172839506172839,0,0,0.06172839506172839,119.93827160493828,0)" xlink:href="#ad"/></g><g id="q"><use transform="matrix(0.06172839506172839,0,0,0.06172839506172839,0,0)" xlink:href="#Y"/><use transform="matrix(0.06172839506172839,0,0,0.06172839506172839,9.93827160493827,0)" xlink:href="#af"/><use transform="matrix(0.06172839506172839,0,0,0.06172839506172839,22.28395061728395,0)" xlink:href="#ak"/><use transform="matrix(0.06172839506172839,0,0,0.06172839506172839,34.50617283950617,0)" xlink:href="#an"/><use transform="matrix(0.06172839506172839,0,0,0.06172839506172839,44.382716049382715,0)" xlink:href="#ad"/><use transform="matrix(0.06172839506172839,0,0,0.06172839506172839,56.72839506172839,0)" xlink:href="#ao"/><use transform="matrix(0.06172839506172839,0,0,0.06172839506172839,69.1358024691358,0)" xlink:href="#ak"/><use transform="matrix(0.06172839506172839,0,0,0.06172839506172839,81.35802469135803,0)" xlink:href="#ad"/><use transform="matrix(0.06172839506172839,0,0,0.06172839506172839,93.70370370370371,0)" xlink:href="#ap"/><use transform="matrix(0.06172839506172839,0,0,0.06172839506172839,106.0493827160494,0)" xlink:href="#aB"/></g><g id="r"><use transform="matrix(0.06172839506172839,0,0,0.06172839506172839,0,0)" xlink:href="#X"/><use transform="matrix(0.06172839506172839,0,0,0.06172839506172839,14.814814814814813,0)" xlink:href="#av"/><use transform="matrix(0.06172839506172839,0,0,0.06172839506172839,30.74074074074074,0)" xlink:href="#as"/><use transform="matrix(0.06172839506172839,0,0,0.06172839506172839,43.45679012345679,0)" xlink:href="#af"/><use transform="matrix(0.06172839506172839,0,0,0.06172839506172839,55.80246913580247,0)" xlink:href="#ap"/></g><path fill="#333" d="M57-190v167h83v-167h32v167h26v95h-29V0H25v-190h32" id="aK"/><g id="s"><use transform="matrix(0.06172839506172839,0,0,0.06172839506172839,0,0)" xlink:href="#ap"/><use transform="matrix(0.06172839506172839,0,0,0.06172839506172839,12.345679012345679,0)" xlink:href="#ad"/><use transform="matrix(0.06172839506172839,0,0,0.06172839506172839,24.691358024691358,0)" xlink:href="#aK"/><use transform="matrix(0.06172839506172839,0,0,0.06172839506172839,37.160493827160494,0)" xlink:href="#ad"/><use transform="matrix(0.06172839506172839,0,0,0.06172839506172839,49.50617283950617,0)" xlink:href="#aw"/><use transform="matrix(0.06172839506172839,0,0,0.06172839506172839,61.48148148148148,0)" xlink:href="#an"/><use transform="matrix(0.06172839506172839,0,0,0.06172839506172839,71.35802469135803,0)" xlink:href="#ac"/></g><path fill="#333" d="M30-248c87 1 191-15 191 75 0 78-77 80-158 76V0H30v-248zm33 125c57 0 124 11 124-50 0-59-68-47-124-48v98" id="aL"/><g id="t"><use transform="matrix(0.06172839506172839,0,0,0.06172839506172839,0,0)" xlink:href="#aL"/><use transform="matrix(0.06172839506172839,0,0,0.06172839506172839,13.827160493827158,0)" xlink:href="#ad"/><use transform="matrix(0.06172839506172839,0,0,0.06172839506172839,26.172839506172835,0)" xlink:href="#aK"/><use transform="matrix(0.06172839506172839,0,0,0.06172839506172839,38.64197530864197,0)" xlink:href="#ad"/><use transform="matrix(0.06172839506172839,0,0,0.06172839506172839,50.987654320987644,0)" xlink:href="#aw"/><use transform="matrix(0.06172839506172839,0,0,0.06172839506172839,62.962962962962955,0)" xlink:href="#an"/></g><g id="u"><use transform="matrix(0.06172839506172839,0,0,0.06172839506172839,0,0)" xlink:href="#aL"/><use transform="matrix(0.06172839506172839,0,0,0.06172839506172839,13.827160493827158,0)" xlink:href="#ad"/><use transform="matrix(0.06172839506172839,0,0,0.06172839506172839,26.172839506172835,0)" xlink:href="#aK"/><use transform="matrix(0.06172839506172839,0,0,0.06172839506172839,38.64197530864197,0)" xlink:href="#ad"/><use transform="matrix(0.06172839506172839,0,0,0.06172839506172839,50.987654320987644,0)" xlink:href="#aw"/><use transform="matrix(0.06172839506172839,0,0,0.06172839506172839,62.962962962962955,0)" xlink:href="#an"/></g><g id="v"><use transform="matrix(0.06172839506172839,0,0,0.06172839506172839,0,0)" xlink:href="#aw"/><use transform="matrix(0.06172839506172839,0,0,0.06172839506172839,11.975308641975309,0)" xlink:href="#af"/><use transform="matrix(0.06172839506172839,0,0,0.06172839506172839,23.827160493827158,0)" xlink:href="#Z"/><use transform="matrix(0.06172839506172839,0,0,0.06172839506172839,36.79012345679012,0)" xlink:href="#al"/><use transform="matrix(0.06172839506172839,0,0,0.06172839506172839,47.90123456790123,0)" xlink:href="#ab"/><use transform="matrix(0.06172839506172839,0,0,0.06172839506172839,59.444444444444436,0)" xlink:href="#ad"/><use transform="matrix(0.06172839506172839,0,0,0.06172839506172839,71.79012345679011,0)" xlink:href="#ak"/><use transform="matrix(0.06172839506172839,0,0,0.06172839506172839,84.01234567901233,0)" xlink:href="#ax"/></g><path fill="#333" d="M156-87c-4 1-15 3-20 3V0h-31v-84c-5 0-16-2-20-3L36 0H1l62-104c-22-24-40-59-60-86h33l50 76c5 5 9 7 19 7v-83h31v83c27-1 31-21 43-41l26-42h33l-60 86L240 0h-36" id="aM"/><g id="w"><use transform="matrix(0.06172839506172839,0,0,0.06172839506172839,0,0)" xlink:href="#aL"/><use transform="matrix(0.06172839506172839,0,0,0.06172839506172839,13.827160493827158,0)" xlink:href="#ad"/><use transform="matrix(0.06172839506172839,0,0,0.06172839506172839,25.925925925925924,0)" xlink:href="#aM"/><use transform="matrix(0.06172839506172839,0,0,0.06172839506172839,40.74074074074073,0)" xlink:href="#aj"/><use transform="matrix(0.06172839506172839,0,0,0.06172839506172839,53.14814814814814,0)" xlink:href="#ae"/></g><g id="x"><use transform="matrix(0.06172839506172839,0,0,0.06172839506172839,0,0)" xlink:href="#af"/><use transform="matrix(0.06172839506172839,0,0,0.06172839506172839,12.098765432098766,0)" xlink:href="#aM"/><use transform="matrix(0.06172839506172839,0,0,0.06172839506172839,26.91358024691358,0)" xlink:href="#aj"/><use transform="matrix(0.06172839506172839,0,0,0.06172839506172839,39.32098765432099,0)" xlink:href="#aq"/><use transform="matrix(0.06172839506172839,0,0,0.06172839506172839,52.28395061728395,0)" xlink:href="#ac"/><use transform="matrix(0.06172839506172839,0,0,0.06172839506172839,64.62962962962963,0)" xlink:href="#ak"/><use transform="matrix(0.06172839506172839,0,0,0.06172839506172839,76.85185185185185,0)" xlink:href="#aj"/><use transform="matrix(0.06172839506172839,0,0,0.06172839506172839,89.25925925925925,0)" xlink:href="#ar"/></g><g id="y"><use transform="matrix(0.06172839506172839,0,0,0.06172839506172839,0,0)" xlink:href="#Y"/><use transform="matrix(0.06172839506172839,0,0,0.06172839506172839,9.691358024691358,0)" xlink:href="#aj"/><use transform="matrix(0.06172839506172839,0,0,0.06172839506172839,22.098765432098766,0)" xlink:href="#aw"/><use transform="matrix(0.06172839506172839,0,0,0.06172839506172839,34.074074074074076,0)" xlink:href="#ar"/><use transform="matrix(0.06172839506172839,0,0,0.06172839506172839,46.04938271604939,0)" xlink:href="#an"/><use transform="matrix(0.06172839506172839,0,0,0.06172839506172839,55.92592592592593,0)" xlink:href="#af"/><use transform="matrix(0.06172839506172839,0,0,0.06172839506172839,68.27160493827161,0)" xlink:href="#Y"/><use transform="matrix(0.06172839506172839,0,0,0.06172839506172839,77.96296296296296,0)" xlink:href="#ax"/></g><g id="z"><use transform="matrix(0.06172839506172839,0,0,0.06172839506172839,0,0)" xlink:href="#X"/><use transform="matrix(0.06172839506172839,0,0,0.06172839506172839,14.814814814814813,0)" xlink:href="#af"/><use transform="matrix(0.06172839506172839,0,0,0.06172839506172839,26.666666666666664,0)" xlink:href="#aq"/><use transform="matrix(0.06172839506172839,0,0,0.06172839506172839,39.629629629629626,0)" xlink:href="#ac"/></g><path fill="#333" d="M173-56C173 11 92 0 25 0v-190h32v80c58-2 117-2 116 54zm-34 0c0-39-44-31-82-32v66c39 0 82 6 82-34" id="aN"/><g id="A"><use transform="matrix(0.06172839506172839,0,0,0.06172839506172839,0,0)" xlink:href="#ad"/><use transform="matrix(0.06172839506172839,0,0,0.06172839506172839,12.345679012345679,0)" xlink:href="#aJ"/><use transform="matrix(0.06172839506172839,0,0,0.06172839506172839,23.45679012345679,0)" xlink:href="#an"/><use transform="matrix(0.06172839506172839,0,0,0.06172839506172839,33.58024691358025,0)" xlink:href="#aN"/><use transform="matrix(0.06172839506172839,0,0,0.06172839506172839,45.123456790123456,0)" xlink:href="#ax"/></g><g id="B"><use transform="matrix(0.06172839506172839,0,0,0.06172839506172839,0,0)" xlink:href="#Z"/><use transform="matrix(0.06172839506172839,0,0,0.06172839506172839,12.962962962962962,0)" xlink:href="#aN"/><use transform="matrix(0.06172839506172839,0,0,0.06172839506172839,24.50617283950617,0)" xlink:href="#ad"/><use transform="matrix(0.06172839506172839,0,0,0.06172839506172839,36.85185185185185,0)" xlink:href="#ae"/></g><g id="C"><use transform="matrix(0.06172839506172839,0,0,0.06172839506172839,0,0)" xlink:href="#Y"/><use transform="matrix(0.06172839506172839,0,0,0.06172839506172839,9.691358024691358,0)" xlink:href="#aj"/><use transform="matrix(0.06172839506172839,0,0,0.06172839506172839,22.098765432098766,0)" xlink:href="#aw"/><use transform="matrix(0.06172839506172839,0,0,0.06172839506172839,34.074074074074076,0)" xlink:href="#ar"/><use transform="matrix(0.06172839506172839,0,0,0.06172839506172839,46.04938271604939,0)" xlink:href="#an"/><use transform="matrix(0.06172839506172839,0,0,0.06172839506172839,55.92592592592593,0)" xlink:href="#af"/><use transform="matrix(0.06172839506172839,0,0,0.06172839506172839,68.27160493827161,0)" xlink:href="#Y"/></g><path fill="#333" d="M233-177c-1 41-23 64-60 70L243 0h-38l-65-103H63V0H30v-248c88 3 205-21 203 71zM63-129c60-2 137 13 137-47 0-61-80-42-137-45v92" id="aO"/><path fill="#333" d="M140-251c81 0 123 46 123 126C263-46 219 4 140 4 59 4 17-45 17-125s42-126 123-126zm0 227c63 0 89-41 89-101s-29-99-89-99c-61 0-89 39-89 99S79-25 140-24" id="aP"/><path fill="#333" d="M33-154v-36h34v36H33zM33 0v-36h34V0H33" id="aQ"/><g id="D"><use transform="matrix(0.06172839506172839,0,0,0.06172839506172839,0,0)" xlink:href="#ay"/><use transform="matrix(0.06172839506172839,0,0,0.06172839506172839,14.814814814814813,0)" xlink:href="#aO"/><use transform="matrix(0.06172839506172839,0,0,0.06172839506172839,30.80246913580247,0)" xlink:href="#aO"/><use transform="matrix(0.06172839506172839,0,0,0.06172839506172839,46.79012345679012,0)" xlink:href="#aP"/><use transform="matrix(0.06172839506172839,0,0,0.06172839506172839,64.07407407407408,0)" xlink:href="#aO"/><use transform="matrix(0.06172839506172839,0,0,0.06172839506172839,80.06172839506173,0)" xlink:href="#aQ"/></g><path fill="#333" d="M206-28h31V72h-32V0H34v72H3V-28h25c38-50 38-143 51-220h127v220zm-32 0v-192h-66C95-156 94-78 66-28h108" id="aR"/><g id="E"><use transform="matrix(0.06172839506172839,0,0,0.06172839506172839,0,0)" xlink:href="#aB"/><use transform="matrix(0.06172839506172839,0,0,0.06172839506172839,7.8395061728395055,0)" xlink:href="#aR"/><use transform="matrix(0.06172839506172839,0,0,0.06172839506172839,23.086419753086417,0)" xlink:href="#af"/><use transform="matrix(0.06172839506172839,0,0,0.06172839506172839,35.432098765432094,0)" xlink:href="#as"/><use transform="matrix(0.06172839506172839,0,0,0.06172839506172839,47.654320987654316,0)" xlink:href="#ac"/><use transform="matrix(0.06172839506172839,0,0,0.06172839506172839,59.99999999999999,0)" xlink:href="#au"/><use transform="matrix(0.06172839506172839,0,0,0.06172839506172839,71.79012345679011,0)" xlink:href="#aN"/><use transform="matrix(0.06172839506172839,0,0,0.06172839506172839,81.60493827160494,0)" xlink:href="#an"/><use transform="matrix(0.06172839506172839,0,0,0.06172839506172839,91.48148148148148,0)" xlink:href="#ad"/></g><g id="F"><use transform="matrix(0.06172839506172839,0,0,0.06172839506172839,0,0)" xlink:href="#au"/><use transform="matrix(0.06172839506172839,0,0,0.06172839506172839,11.54320987654321,0)" xlink:href="#af"/><use transform="matrix(0.06172839506172839,0,0,0.06172839506172839,23.395061728395063,0)" xlink:href="#aq"/><use transform="matrix(0.06172839506172839,0,0,0.06172839506172839,36.358024691358025,0)" xlink:href="#av"/><use transform="matrix(0.06172839506172839,0,0,0.06172839506172839,52.28395061728395,0)" xlink:href="#aB"/></g><g id="G"><use transform="matrix(0.06172839506172839,0,0,0.06172839506172839,0,0)" xlink:href="#am"/><use transform="matrix(0.06172839506172839,0,0,0.06172839506172839,12.901234567901234,0)" xlink:href="#af"/><use transform="matrix(0.06172839506172839,0,0,0.06172839506172839,25.24691358024691,0)" xlink:href="#ag"/><use transform="matrix(0.06172839506172839,0,0,0.06172839506172839,43.51851851851852,0)" xlink:href="#ad"/></g><path fill="#333" d="M121-190v23H57V0H25v-190h96" id="aS"/><g id="H"><use transform="matrix(0.06172839506172839,0,0,0.06172839506172839,0,0)" xlink:href="#aS"/><use transform="matrix(0.06172839506172839,0,0,0.06172839506172839,7.592592592592592,0)" xlink:href="#af"/><use transform="matrix(0.06172839506172839,0,0,0.06172839506172839,19.444444444444443,0)" xlink:href="#an"/><use transform="matrix(0.06172839506172839,0,0,0.06172839506172839,29.320987654320984,0)" xlink:href="#af"/><use transform="matrix(0.06172839506172839,0,0,0.06172839506172839,41.666666666666664,0)" xlink:href="#au"/><use transform="matrix(0.06172839506172839,0,0,0.06172839506172839,53.456790123456784,0)" xlink:href="#aj"/><use transform="matrix(0.06172839506172839,0,0,0.06172839506172839,65.86419753086419,0)" xlink:href="#ae"/></g><g id="I"><use transform="matrix(0.06172839506172839,0,0,0.06172839506172839,0,0)" xlink:href="#Y"/><use transform="matrix(0.06172839506172839,0,0,0.06172839506172839,9.93827160493827,0)" xlink:href="#af"/><use transform="matrix(0.06172839506172839,0,0,0.06172839506172839,22.28395061728395,0)" xlink:href="#ag"/><use transform="matrix(0.06172839506172839,0,0,0.06172839506172839,40.55555555555556,0)" xlink:href="#ad"/><use transform="matrix(0.06172839506172839,0,0,0.06172839506172839,52.901234567901234,0)" xlink:href="#ah"/><use transform="matrix(0.06172839506172839,0,0,0.06172839506172839,60.24691358024691,0)" xlink:href="#Y"/><use transform="matrix(0.06172839506172839,0,0,0.06172839506172839,70.4320987654321,0)" xlink:href="#ac"/><use transform="matrix(0.06172839506172839,0,0,0.06172839506172839,82.77777777777779,0)" xlink:href="#aw"/><use transform="matrix(0.06172839506172839,0,0,0.06172839506172839,94.75308641975309,0)" xlink:href="#aJ"/><use transform="matrix(0.06172839506172839,0,0,0.06172839506172839,105.8641975308642,0)" xlink:href="#al"/><use transform="matrix(0.06172839506172839,0,0,0.06172839506172839,116.4814814814815,0)" xlink:href="#Z"/><use transform="matrix(0.06172839506172839,0,0,0.06172839506172839,129.44444444444446,0)" xlink:href="#al"/></g><g id="J"><use transform="matrix(0.06172839506172839,0,0,0.06172839506172839,0,0)" xlink:href="#Y"/><use transform="matrix(0.06172839506172839,0,0,0.06172839506172839,9.93827160493827,0)" xlink:href="#af"/><use transform="matrix(0.06172839506172839,0,0,0.06172839506172839,22.28395061728395,0)" xlink:href="#ag"/><use transform="matrix(0.06172839506172839,0,0,0.06172839506172839,40.55555555555556,0)" xlink:href="#ad"/><use transform="matrix(0.06172839506172839,0,0,0.06172839506172839,52.901234567901234,0)" xlink:href="#aB"/></g><path fill="#333" d="M174-220h-73C86-151 89-61 55-11 46 3 24 5 3 1v-27c55 4 50-76 57-132l12-90h135V0h-33v-220" id="aT"/><g id="K"><use transform="matrix(0.06172839506172839,0,0,0.06172839506172839,0,0)" xlink:href="#aT"/><use transform="matrix(0.06172839506172839,0,0,0.06172839506172839,14.5679012345679,0)" xlink:href="#ac"/><use transform="matrix(0.06172839506172839,0,0,0.06172839506172839,26.419753086419753,0)" xlink:href="#an"/><use transform="matrix(0.06172839506172839,0,0,0.06172839506172839,36.54320987654321,0)" xlink:href="#an"/><use transform="matrix(0.06172839506172839,0,0,0.06172839506172839,46.41975308641975,0)" xlink:href="#ad"/><use transform="matrix(0.06172839506172839,0,0,0.06172839506172839,58.76543209876543,0)" xlink:href="#ax"/></g><path fill="#333" d="M240 0l2-218c-23 76-54 145-80 218h-23L58-218 59 0H30v-248h44l77 211c21-75 51-140 76-211h43V0h-30" id="aU"/><g id="L"><use transform="matrix(0.06172839506172839,0,0,0.06172839506172839,0,0)" xlink:href="#aU"/><use transform="matrix(0.06172839506172839,0,0,0.06172839506172839,18.703703703703702,0)" xlink:href="#af"/><use transform="matrix(0.06172839506172839,0,0,0.06172839506172839,30.555555555555557,0)" xlink:href="#Z"/><use transform="matrix(0.06172839506172839,0,0,0.06172839506172839,43.76543209876543,0)" xlink:href="#af"/><use transform="matrix(0.06172839506172839,0,0,0.06172839506172839,56.11111111111111,0)" xlink:href="#Y"/><use transform="matrix(0.06172839506172839,0,0,0.06172839506172839,66.04938271604938,0)" xlink:href="#af"/></g><path fill="#333" d="M197 0v-115H63V0H30v-248h33v105h134v-105h34V0h-34" id="aV"/><g id="M"><use transform="matrix(0.06172839506172839,0,0,0.06172839506172839,0,0)" xlink:href="#aV"/><use transform="matrix(0.06172839506172839,0,0,0.06172839506172839,15.987654320987653,0)" xlink:href="#ac"/><use transform="matrix(0.06172839506172839,0,0,0.06172839506172839,28.333333333333332,0)" xlink:href="#Z"/><use transform="matrix(0.06172839506172839,0,0,0.06172839506172839,41.29629629629629,0)" xlink:href="#aj"/><use transform="matrix(0.06172839506172839,0,0,0.06172839506172839,53.703703703703695,0)" xlink:href="#au"/><use transform="matrix(0.06172839506172839,0,0,0.06172839506172839,65.24691358024691,0)" xlink:href="#ac"/><use transform="matrix(0.06172839506172839,0,0,0.06172839506172839,77.5925925925926,0)" xlink:href="#ad"/><use transform="matrix(0.06172839506172839,0,0,0.06172839506172839,89.93827160493828,0)" xlink:href="#ae"/></g><g id="N"><use transform="matrix(0.06172839506172839,0,0,0.06172839506172839,0,0)" xlink:href="#ae"/><use transform="matrix(0.06172839506172839,0,0,0.06172839506172839,15.246913580246913,0)" xlink:href="#af"/><use transform="matrix(0.06172839506172839,0,0,0.06172839506172839,27.098765432098766,0)" xlink:href="#Z"/><use transform="matrix(0.06172839506172839,0,0,0.06172839506172839,40.308641975308646,0)" xlink:href="#af"/><use transform="matrix(0.06172839506172839,0,0,0.06172839506172839,52.65432098765432,0)" xlink:href="#Y"/><use transform="matrix(0.06172839506172839,0,0,0.06172839506172839,62.592592592592595,0)" xlink:href="#af"/></g><g id="O"><use transform="matrix(0.06172839506172839,0,0,0.06172839506172839,0,0)" xlink:href="#ay"/><use transform="matrix(0.06172839506172839,0,0,0.06172839506172839,14.814814814814813,0)" xlink:href="#az"/><use transform="matrix(0.06172839506172839,0,0,0.06172839506172839,22.160493827160494,0)" xlink:href="#az"/><use transform="matrix(0.06172839506172839,0,0,0.06172839506172839,29.50617283950617,0)" xlink:href="#aA"/><use transform="matrix(0.06172839506172839,0,0,0.06172839506172839,41.85185185185185,0)" xlink:href="#az"/><use transform="matrix(0.06172839506172839,0,0,0.06172839506172839,49.197530864197525,0)" xlink:href="#aQ"/></g><g id="P"><use transform="matrix(0.06172839506172839,0,0,0.06172839506172839,0,0)" xlink:href="#ae"/><use transform="matrix(0.06172839506172839,0,0,0.06172839506172839,15.246913580246913,0)" xlink:href="#af"/><use transform="matrix(0.06172839506172839,0,0,0.06172839506172839,27.098765432098766,0)" xlink:href="#Z"/><use transform="matrix(0.06172839506172839,0,0,0.06172839506172839,40.308641975308646,0)" xlink:href="#af"/><use transform="matrix(0.06172839506172839,0,0,0.06172839506172839,52.65432098765432,0)" xlink:href="#Y"/><use transform="matrix(0.06172839506172839,0,0,0.06172839506172839,62.839506172839506,0)" xlink:href="#ac"/><use transform="matrix(0.06172839506172839,0,0,0.06172839506172839,75.18518518518519,0)" xlink:href="#aB"/></g><g id="Q"><use transform="matrix(0.06172839506172839,0,0,0.06172839506172839,0,0)" xlink:href="#Z"/><use transform="matrix(0.06172839506172839,0,0,0.06172839506172839,12.962962962962962,0)" xlink:href="#aN"/><use transform="matrix(0.06172839506172839,0,0,0.06172839506172839,24.50617283950617,0)" xlink:href="#ad"/><use transform="matrix(0.06172839506172839,0,0,0.06172839506172839,36.85185185185185,0)" xlink:href="#ae"/></g><g id="R"><use transform="matrix(0.06172839506172839,0,0,0.06172839506172839,0,0)" xlink:href="#Y"/><use transform="matrix(0.06172839506172839,0,0,0.06172839506172839,9.93827160493827,0)" xlink:href="#af"/><use transform="matrix(0.06172839506172839,0,0,0.06172839506172839,22.28395061728395,0)" xlink:href="#ag"/><use transform="matrix(0.06172839506172839,0,0,0.06172839506172839,40.55555555555556,0)" xlink:href="#ad"/></g><path fill="#333" d="M188-248v28H63V0H30v-248h158" id="aW"/><g id="S"><use transform="matrix(0.06172839506172839,0,0,0.06172839506172839,0,0)" xlink:href="#aW"/><use transform="matrix(0.06172839506172839,0,0,0.06172839506172839,10.493827160493828,0)" xlink:href="#af"/><use transform="matrix(0.06172839506172839,0,0,0.06172839506172839,22.345679012345677,0)" xlink:href="#an"/><use transform="matrix(0.06172839506172839,0,0,0.06172839506172839,32.222222222222214,0)" xlink:href="#af"/><use transform="matrix(0.06172839506172839,0,0,0.06172839506172839,44.56790123456789,0)" xlink:href="#au"/><use transform="matrix(0.06172839506172839,0,0,0.06172839506172839,56.35802469135801,0)" xlink:href="#av"/><use transform="matrix(0.06172839506172839,0,0,0.06172839506172839,72.28395061728394,0)" xlink:href="#ao"/></g><g id="T"><use transform="matrix(0.06172839506172839,0,0,0.06172839506172839,0,0)" xlink:href="#Y"/><use transform="matrix(0.06172839506172839,0,0,0.06172839506172839,9.93827160493827,0)" xlink:href="#af"/><use transform="matrix(0.06172839506172839,0,0,0.06172839506172839,22.28395061728395,0)" xlink:href="#ag"/><use transform="matrix(0.06172839506172839,0,0,0.06172839506172839,40.55555555555556,0)" xlink:href="#ad"/><use transform="matrix(0.06172839506172839,0,0,0.06172839506172839,52.901234567901234,0)" xlink:href="#ao"/><use transform="matrix(0.06172839506172839,0,0,0.06172839506172839,65.30864197530865,0)" xlink:href="#ak"/><use transform="matrix(0.06172839506172839,0,0,0.06172839506172839,77.53086419753086,0)" xlink:href="#av"/></g><g id="U"><use transform="matrix(0.06172839506172839,0,0,0.06172839506172839,0,0)" xlink:href="#ak"/><use transform="matrix(0.06172839506172839,0,0,0.06172839506172839,12.222222222222221,0)" xlink:href="#ac"/><use transform="matrix(0.06172839506172839,0,0,0.06172839506172839,24.5679012345679,0)" xlink:href="#aw"/><use transform="matrix(0.06172839506172839,0,0,0.06172839506172839,36.54320987654321,0)" xlink:href="#aj"/><use transform="matrix(0.06172839506172839,0,0,0.06172839506172839,48.95061728395061,0)" xlink:href="#an"/><use transform="matrix(0.06172839506172839,0,0,0.06172839506172839,58.82716049382716,0)" xlink:href="#af"/><use transform="matrix(0.06172839506172839,0,0,0.06172839506172839,71.17283950617283,0)" xlink:href="#Y"/></g><g id="V"><use transform="matrix(0.06172839506172839,0,0,0.06172839506172839,0,0)" xlink:href="#aj"/><use transform="matrix(0.06172839506172839,0,0,0.06172839506172839,12.407407407407407,0)" xlink:href="#aJ"/><use transform="matrix(0.06172839506172839,0,0,0.06172839506172839,23.51851851851852,0)" xlink:href="#aw"/><use transform="matrix(0.06172839506172839,0,0,0.06172839506172839,35.49382716049383,0)" xlink:href="#av"/><use transform="matrix(0.06172839506172839,0,0,0.06172839506172839,51.41975308641975,0)" xlink:href="#an"/><use transform="matrix(0.06172839506172839,0,0,0.06172839506172839,61.54320987654321,0)" xlink:href="#av"/><use transform="matrix(0.06172839506172839,0,0,0.06172839506172839,77.46913580246914,0)" xlink:href="#au"/><use transform="matrix(0.06172839506172839,0,0,0.06172839506172839,89.01234567901236,0)" xlink:href="#ac"/><use transform="matrix(0.06172839506172839,0,0,0.06172839506172839,101.35802469135804,0)" xlink:href="#ad"/><use transform="matrix(0.06172839506172839,0,0,0.06172839506172839,113.70370370370372,0)" xlink:href="#ae"/></g><g id="W"><use transform="matrix(0.06172839506172839,0,0,0.06172839506172839,0,0)" xlink:href="#aJ"/><use transform="matrix(0.06172839506172839,0,0,0.06172839506172839,10.864197530864198,0)" xlink:href="#ab"/><use transform="matrix(0.06172839506172839,0,0,0.06172839506172839,22.407407407407405,0)" xlink:href="#ac"/><use transform="matrix(0.06172839506172839,0,0,0.06172839506172839,34.75308641975308,0)" xlink:href="#aJ"/><use transform="matrix(0.06172839506172839,0,0,0.06172839506172839,45.86419753086419,0)" xlink:href="#an"/><use transform="matrix(0.06172839506172839,0,0,0.06172839506172839,55.987654320987644,0)" xlink:href="#aN"/><use transform="matrix(0.06172839506172839,0,0,0.06172839506172839,67.53086419753086,0)" xlink:href="#ad"/></g></defs></g></svg>