<svg width="160" height="50" viewBox="0 0 160 50" fill="none" xmlns="http://www.w3.org/2000/svg">
<rect width="160" height="50" fill="#4737FF"/>
<path d="M22.0859 20.116C22.7206 20.116 23.2806 20.214 23.7659 20.41C24.2606 20.5967 24.7272 20.8767 25.1659 21.25L24.1719 22.286C23.8266 22.0153 23.4999 21.8193 23.1919 21.698C22.8932 21.5767 22.5432 21.516 22.1419 21.516C21.3952 21.516 20.7839 21.8147 20.3079 22.412C19.8319 23.0093 19.5939 23.924 19.5939 25.156C19.5939 26.444 19.7806 27.3727 20.1539 27.942C20.5366 28.5113 21.1152 28.796 21.8899 28.796C22.4779 28.796 22.9912 28.67 23.4299 28.418V25.898H21.9739L21.7779 24.526H25.2499V29.258C24.2046 29.8927 23.0939 30.21 21.9179 30.21C20.5366 30.21 19.4772 29.7807 18.7399 28.922C18.0119 28.0633 17.6479 26.808 17.6479 25.156C17.6479 24.1013 17.8439 23.196 18.2359 22.44C18.6372 21.6747 19.1739 21.096 19.8459 20.704C20.5179 20.312 21.2646 20.116 22.0859 20.116ZM36.7216 20.326L36.5256 21.698H32.9556V24.4H36.0636V25.772H32.9556V28.614H36.7776V30H31.1076V20.326H36.7216ZM48.7475 20.326L48.5515 21.796H46.0315V30H44.1695V21.796H41.5655V20.326H48.7475ZM64.2413 20.116C64.9226 20.116 65.5153 20.214 66.0193 20.41C66.5233 20.606 66.9946 20.9047 67.4333 21.306L66.5233 22.356C66.178 22.0667 65.828 21.8567 65.4733 21.726C65.128 21.5953 64.7546 21.53 64.3533 21.53C63.9053 21.53 63.5413 21.6327 63.2613 21.838C62.9906 22.034 62.8553 22.314 62.8553 22.678C62.8553 22.9207 62.9066 23.1213 63.0093 23.28C63.1213 23.4387 63.3173 23.588 63.5973 23.728C63.8773 23.868 64.2926 24.022 64.8433 24.19C65.7953 24.4887 66.5093 24.862 66.9853 25.31C67.4706 25.7487 67.7133 26.3927 67.7133 27.242C67.7133 27.8207 67.564 28.334 67.2653 28.782C66.976 29.23 66.556 29.58 66.0053 29.832C65.4546 30.084 64.8013 30.21 64.0453 30.21C63.308 30.21 62.6453 30.0933 62.0573 29.86C61.4786 29.6173 60.9793 29.2907 60.5593 28.88L61.5113 27.816C61.8846 28.1333 62.272 28.376 62.6733 28.544C63.0746 28.7027 63.518 28.782 64.0033 28.782C64.5353 28.782 64.9646 28.656 65.2913 28.404C65.618 28.152 65.7813 27.7973 65.7813 27.34C65.7813 27.06 65.7253 26.8313 65.6133 26.654C65.5013 26.4673 65.31 26.304 65.0393 26.164C64.7686 26.0147 64.3766 25.8607 63.8633 25.702C62.8366 25.3847 62.0946 25.002 61.6373 24.554C61.18 24.106 60.9513 23.518 60.9513 22.79C60.9513 22.258 61.0913 21.7913 61.3713 21.39C61.6513 20.9887 62.0386 20.676 62.5333 20.452C63.0373 20.228 63.6066 20.116 64.2413 20.116ZM79.2045 20.326L79.0085 21.796H76.4885V30H74.6265V21.796H72.0225V20.326H79.2045ZM88.8391 30L88.2371 27.76H85.0311L84.4291 30H82.5111L85.5211 20.326H87.8031L90.7991 30H88.8391ZM85.3951 26.36H87.8591L86.6271 21.74L85.3951 26.36ZM98.9012 26.122H97.7252V30H95.8772V20.326H98.7612C101.318 20.326 102.597 21.2733 102.597 23.168C102.597 23.812 102.438 24.344 102.121 24.764C101.804 25.184 101.309 25.5247 100.637 25.786L103.171 30H101.043L98.9012 26.122ZM97.7252 24.792H98.8732C99.4612 24.792 99.9045 24.666 100.203 24.414C100.511 24.1527 100.665 23.7373 100.665 23.168C100.665 22.6453 100.506 22.2673 100.189 22.034C99.8812 21.7913 99.3912 21.67 98.7192 21.67H97.7252V24.792ZM114.378 20.326L114.182 21.796H111.662V30H109.8V21.796H107.196V20.326H114.378ZM125.2 20.326L125.004 21.698H121.434V24.4H124.542V25.772H121.434V28.614H125.256V30H119.586V20.326H125.2ZM133.39 20.326C134.893 20.326 136.092 20.6667 136.988 21.348C137.893 22.0293 138.346 23.2847 138.346 25.114C138.346 26.906 137.903 28.1707 137.016 28.908C136.129 29.636 135.005 30 133.642 30H131.01V20.326H133.39ZM132.858 21.712V28.614H133.768C134.589 28.614 135.233 28.362 135.7 27.858C136.167 27.3447 136.4 26.43 136.4 25.114C136.4 24.1993 136.279 23.4947 136.036 23C135.803 22.496 135.49 22.1553 135.098 21.978C134.715 21.8007 134.253 21.712 133.712 21.712H132.858Z" fill="white"/>
</svg>
