<svg width="32" height="32" viewBox="0 0 32 32" fill="none" xmlns="http://www.w3.org/2000/svg">
<path d="M6.66665 1.33334H2.66665C2.31302 1.33334 1.97388 1.47381 1.72384 1.72386C1.47379 1.97391 1.33331 2.31305 1.33331 2.66667V29.3333C1.33331 29.687 1.47379 30.0261 1.72384 30.2761C1.97388 30.5262 2.31302 30.6667 2.66665 30.6667H6.66665V1.33334Z" fill="#D6B1FF"/>
<path d="M9.33331 30.6667H22.6666V1.33334H9.33331V30.6667ZM16 25.3333C15.6464 25.3333 15.3072 25.1929 15.0572 24.9428C14.8071 24.6928 14.6666 24.3536 14.6666 24C14.6666 23.6464 14.8071 23.3072 15.0572 23.0572C15.3072 22.8071 15.6464 22.6667 16 22.6667C16.3536 22.6667 16.6927 22.8071 16.9428 23.0572C17.1928 23.3072 17.3333 23.6464 17.3333 24C17.3333 24.3536 17.1928 24.6928 16.9428 24.9428C16.6927 25.1929 16.3536 25.3333 16 25.3333ZM16 6.66667C16.3536 6.66667 16.6927 6.80714 16.9428 7.05719C17.1928 7.30724 17.3333 7.64638 17.3333 8C17.3333 8.35362 17.1928 8.69276 16.9428 8.94281C16.6927 9.19286 16.3536 9.33334 16 9.33334C15.6464 9.33334 15.3072 9.19286 15.0572 8.94281C14.8071 8.69276 14.6666 8.35362 14.6666 8C14.6666 7.64638 14.8071 7.30724 15.0572 7.05719C15.3072 6.80714 15.6464 6.66667 16 6.66667ZM16 14.6667C16.3536 14.6667 16.6927 14.8071 16.9428 15.0572C17.1928 15.3072 17.3333 15.6464 17.3333 16C17.3333 16.3536 17.1928 16.6928 16.9428 16.9428C16.6927 17.1929 16.3536 17.3333 16 17.3333C15.6464 17.3333 15.3072 17.1929 15.0572 16.9428C14.8071 16.6928 14.6666 16.3536 14.6666 16C14.6666 15.6464 14.8071 15.3072 15.0572 15.0572C15.3072 14.8071 15.6464 14.6667 16 14.6667Z" fill="#8C30F5"/>
<path d="M29.3333 1.33334H25.3333V30.6667H29.3333C29.6869 30.6667 30.0261 30.5262 30.2761 30.2761C30.5262 30.0261 30.6666 29.687 30.6666 29.3333V2.66667C30.6666 2.31305 30.5262 1.97391 30.2761 1.72386C30.0261 1.47381 29.6869 1.33334 29.3333 1.33334Z" fill="#2EC5CE"/>
</svg>
