<svg width="30" height="30" viewBox="0 0 30 30" fill="none" xmlns="http://www.w3.org/2000/svg">
<path d="M5.66665 0.333336H1.66665C1.31302 0.333336 0.973885 0.473811 0.723836 0.723859C0.473788 0.973908 0.333313 1.31305 0.333313 1.66667V28.3333C0.333313 28.687 0.473788 29.0261 0.723836 29.2761C0.973885 29.5262 1.31302 29.6667 1.66665 29.6667H5.66665V0.333336Z" fill="#D6B1FF"/>
<path d="M8.33331 29.6667H21.6666V0.333336H8.33331V29.6667ZM15 24.3333C14.6464 24.3333 14.3072 24.1929 14.0572 23.9428C13.8071 23.6928 13.6666 23.3536 13.6666 23C13.6666 22.6464 13.8071 22.3072 14.0572 22.0572C14.3072 21.8071 14.6464 21.6667 15 21.6667C15.3536 21.6667 15.6927 21.8071 15.9428 22.0572C16.1928 22.3072 16.3333 22.6464 16.3333 23C16.3333 23.3536 16.1928 23.6928 15.9428 23.9428C15.6927 24.1929 15.3536 24.3333 15 24.3333ZM15 5.66667C15.3536 5.66667 15.6927 5.80714 15.9428 6.05719C16.1928 6.30724 16.3333 6.64638 16.3333 7C16.3333 7.35362 16.1928 7.69276 15.9428 7.94281C15.6927 8.19286 15.3536 8.33334 15 8.33334C14.6464 8.33334 14.3072 8.19286 14.0572 7.94281C13.8071 7.69276 13.6666 7.35362 13.6666 7C13.6666 6.64638 13.8071 6.30724 14.0572 6.05719C14.3072 5.80714 14.6464 5.66667 15 5.66667ZM15 13.6667C15.3536 13.6667 15.6927 13.8071 15.9428 14.0572C16.1928 14.3072 16.3333 14.6464 16.3333 15C16.3333 15.3536 16.1928 15.6928 15.9428 15.9428C15.6927 16.1929 15.3536 16.3333 15 16.3333C14.6464 16.3333 14.3072 16.1929 14.0572 15.9428C13.8071 15.6928 13.6666 15.3536 13.6666 15C13.6666 14.6464 13.8071 14.3072 14.0572 14.0572C14.3072 13.8071 14.6464 13.6667 15 13.6667Z" fill="#8C30F5"/>
<path d="M28.3333 0.333336H24.3333V29.6667H28.3333C28.6869 29.6667 29.0261 29.5262 29.2761 29.2761C29.5262 29.0261 29.6666 28.687 29.6666 28.3333V1.66667C29.6666 1.31305 29.5262 0.973908 29.2761 0.723859C29.0261 0.473811 28.6869 0.333336 28.3333 0.333336Z" fill="#2EC5CE"/>
</svg>
