<?xml version="1.0" encoding="UTF-8"?>
<!DOCTYPE svg PUBLIC "-//W3C//DTD SVG 1.1//EN" "http://www.w3.org/Graphics/SVG/1.1/DTD/svg11.dtd">
<svg xmlns="http://www.w3.org/2000/svg" xmlns:xlink="http://www.w3.org/1999/xlink">
<symbol id="google" viewBox="0 0 14 14">
	<path fill="#222" fill-rule="evenodd" d="M13.875 5.603H7.148c0 .7 0 2.099-.004 2.798h3.898c-.15.7-.68 1.68-1.428 2.172 0 0 0 .005-.002.004-.995.657-2.308.806-3.283.61A4.33 4.33 0 0 1 3.1 8.367c.003-.002.005-.021.007-.023-.307-.873-.307-2.042 0-2.741.396-1.286 1.642-2.46 3.172-2.78 1.23-.261 2.62.021 3.64.977.136-.133 1.88-1.836 2.011-1.974C8.44-1.334 2.854-.223.763 3.858l-.004.008a6.837 6.837 0 0 0 .007 6.274l-.007.006a7.126 7.126 0 0 0 4.536 3.615c2.107.553 4.79.175 6.587-1.45l.002.002c1.522-1.37 2.47-3.707 1.991-6.71Z" clip-rule="evenodd"/>
</symbol>
<symbol id="linkedin" viewBox="0 0 16 16">
	<path fill="#222" fill-rule="evenodd" d="M16 16h-3.077v-5.603c0-1.537-.652-2.395-1.82-2.395-1.271 0-2.026.894-2.026 2.395V16H6V5.592h3.077v1.17S10.042 5 12.217 5C14.395 5 16 6.382 16 9.241V16ZM1.5 3a1.5 1.5 0 1 1 0-3 1.5 1.5 0 0 1 0 3ZM0 16h3V6H0v10Z" clip-rule="evenodd"/>
</symbol>
<symbol id="menu-Icon" viewBox="0 0 35 14">
	<path fill="#222" d="M.016 0h34v3h-34zM16.016 11h18v3h-18z"/>
</symbol>
<symbol id="twitter" viewBox="0 0 16 14">
	<path fill="#222" fill-rule="evenodd" d="M5.032 14c6.038 0 9.34-5.387 9.34-10.058 0-.153 0-.306-.01-.457A6.975 6.975 0 0 0 16 1.655a6.178 6.178 0 0 1-1.885.557A3.518 3.518 0 0 0 15.558.256a6.302 6.302 0 0 1-2.084.858C12.23-.309 10.15-.378 8.829.961c-.852.863-1.215 2.15-.95 3.378C5.24 4.196 2.781 2.853 1.114.645.242 2.261.688 4.327 2.13 5.364a3.083 3.083 0 0 1-1.49-.442v.045c0 1.682 1.102 3.131 2.634 3.464a3.04 3.04 0 0 1-1.482.06c.43 1.441 1.662 2.428 3.066 2.456-1.162.984-2.598 1.518-4.076 1.516-.261 0-.522-.017-.782-.05a8.82 8.82 0 0 0 5.032 1.584" clip-rule="evenodd"/>
</symbol>
</svg>