<?xml version="1.0" encoding="UTF-8"?>
<!DOCTYPE svg PUBLIC "-//W3C//DTD SVG 1.1//EN" "http://www.w3.org/Graphics/SVG/1.1/DTD/svg11.dtd">
<svg xmlns="http://www.w3.org/2000/svg" xmlns:xlink="http://www.w3.org/1999/xlink">
<symbol id="mobile" viewBox="0 0 32 32">
	<path fill="#D6B1FF" d="M24 13.333h8L28 8l-4 5.333Zm0 5.334h8L28 24l-4-5.333Z"/>
	<path fill="#8C30F5" d="M1.333 0h8v32h-8A1.334 1.334 0 0 1 0 30.667V1.333A1.333 1.333 0 0 1 1.333 0Z"/>
	<path fill="#2EC5CE" d="M12 0h8a1.333 1.333 0 0 1 1.333 1.333v29.334A1.333 1.333 0 0 1 20 32h-8V0Z"/>
</symbol>
<symbol id="perfomance" viewBox="0 0 32 32">
	<path fill="#D6B1FF" d="M31.467 1.6c-.267-.267-.8-.267-1.2-.267l-7.6 2.267v26.8l8.4-2.4c.533-.133.933-.667.933-1.333v-24c0-.4-.133-.8-.533-1.067Z"/>
	<path fill="#2EC5CE" d="m20 3.6-8-2v26.8l8 2V3.6Z"/>
	<path fill="#8C30F5" d="M9.333 1.6.933 4C.4 4.267 0 4.8 0 5.333v24c0 .4.133.8.533 1.067.267.133.534.267.8.267h.4l7.6-2.267V1.6Z"/>
</symbol>
<symbol id="project" viewBox="0 0 32 32">
	<path fill="#8C30F5" d="M12 13.333H2.667A1.333 1.333 0 0 1 1.333 12V2.667a1.333 1.333 0 0 1 1.334-1.334H12a1.333 1.333 0 0 1 1.333 1.334V12A1.333 1.333 0 0 1 12 13.333ZM12 30.667H2.667a1.333 1.333 0 0 1-1.334-1.334V20a1.333 1.333 0 0 1 1.334-1.333H12A1.333 1.333 0 0 1 13.333 20v9.333A1.333 1.333 0 0 1 12 30.667Z"/>
	<path fill="#2EC5CE" d="M17.333 2.667h13.334v2.666H17.333V2.667ZM30.667 20H17.333v2.667h13.334V20Z"/>
	<path fill="#D6B1FF" d="M30.667 26.667H17.333v2.666h13.334v-2.666ZM30.667 9.333H17.333V12h13.334V9.333Z"/>
</symbol>
<symbol id="strategy" viewBox="0 0 32 32">
	<path fill="#D6B1FF" d="M6.667 1.333h-4a1.333 1.333 0 0 0-1.334 1.334v26.666a1.333 1.333 0 0 0 1.334 1.334h4V1.333Z"/>
	<path fill="#8C30F5" d="M9.333 30.667h13.334V1.333H9.333v29.334ZM16 25.333a1.333 1.333 0 1 1 0-2.666 1.333 1.333 0 0 1 0 2.666Zm0-18.666a1.333 1.333 0 1 1 0 2.667 1.333 1.333 0 0 1 0-2.667Zm0 8a1.333 1.333 0 1 1 0 2.666 1.333 1.333 0 0 1 0-2.666Z"/>
	<path fill="#2EC5CE" d="M29.333 1.333h-4v29.334h4a1.333 1.333 0 0 0 1.334-1.334V2.667a1.333 1.333 0 0 0-1.334-1.334Z"/>
</symbol>
<symbol id="user" viewBox="0 0 32 32">
	<path fill="#D6B1FF" d="M28 32H16a1.333 1.333 0 0 1-1.333-1.333V28A1.333 1.333 0 0 1 16 26.667h12A1.333 1.333 0 0 1 29.333 28v2.667A1.333 1.333 0 0 1 28 32Z"/>
	<path fill="#2EC5CE" d="M28 0H4a1.333 1.333 0 0 0-1.333 1.333V4A1.333 1.333 0 0 0 4 5.333h24A1.333 1.333 0 0 0 29.333 4V1.333A1.333 1.333 0 0 0 28 0Z"/>
	<path fill="#8C30F5" d="M28 8H4a1.333 1.333 0 0 0-1.333 1.333v13.334A1.333 1.333 0 0 0 4 24h24a1.333 1.333 0 0 0 1.333-1.333V9.333A1.333 1.333 0 0 0 28 8Z"/>
</symbol>
<symbol id="web" viewBox="0 0 32 32">
	<path fill="#2EC5CE" d="M30.667 8V2.667a1.333 1.333 0 0 0-1.334-1.334H2.667a1.333 1.333 0 0 0-1.334 1.334V8h29.334Z"/>
	<path fill="#D6B1FF" d="M1.333 10.667v18.666a1.333 1.333 0 0 0 1.334 1.334h6.666v-20h-8Z"/>
	<path fill="#8C30F5" d="M12 30.667h17.333a1.333 1.333 0 0 0 1.334-1.334V10.667H12v20Z"/>
</symbol>
</svg>